FrauncesItalic-BlackOpMaxGoofyMin.ufo
<glyph name="dollar" format="2">
  <advance width="1136"/>
  <unicode hex="0024"/>
  <outline>
    <contour>
      <point x="850" y="1394" type="curve" smooth="yes"/>
      <point x="507" y="1394"/>
      <point x="255" y="1210"/>
      <point x="193" y="979" type="curve" smooth="yes"/>
      <point x="139" y="775"/>
      <point x="214" y="639"/>
      <point x="520" y="523" type="curve" smooth="yes"/>
      <point x="689" y="459"/>
      <point x="727" y="370"/>
      <point x="690" y="232" type="curve" smooth="yes"/>
      <point x="658" y="111"/>
      <point x="568" y="26"/>
      <point x="447" y="26" type="curve" smooth="yes"/>
      <point x="324" y="26"/>
      <point x="272" y="96"/>
      <point x="301" y="204" type="curve" smooth="yes"/>
      <point x="332" y="320" type="line" smooth="yes"/>
      <point x="362" y="432"/>
      <point x="299" y="505"/>
      <point x="200" y="505" type="curve" smooth="yes"/>
      <point x="88" y="505"/>
      <point x="1" y="430"/>
      <point x="-27" y="325" type="curve" smooth="yes"/>
      <point x="-75" y="147"/>
      <point x="64" y="4"/>
      <point x="442" y="4" type="curve" smooth="yes"/>
      <point x="780" y="4"/>
      <point x="1040" y="174"/>
      <point x="1105" y="419" type="curve" smooth="yes"/>
      <point x="1162" y="632"/>
      <point x="1081" y="782"/>
      <point x="787" y="890" type="curve" smooth="yes"/>
      <point x="604" y="956"/>
      <point x="559" y="1041"/>
      <point x="595" y="1176" type="curve" smooth="yes"/>
      <point x="632" y="1312"/>
      <point x="725" y="1371"/>
      <point x="843" y="1371" type="curve" smooth="yes"/>
      <point x="947" y="1371"/>
      <point x="991" y="1290"/>
      <point x="952" y="1146" type="curve" smooth="yes"/>
      <point x="926" y="1049" type="line" smooth="yes"/>
      <point x="898" y="945"/>
      <point x="944" y="874"/>
      <point x="1070" y="874" type="curve" smooth="yes"/>
      <point x="1195" y="874"/>
      <point x="1264" y="958"/>
      <point x="1289" y="1054" type="curve" smooth="yes"/>
      <point x="1342" y="1252"/>
      <point x="1186" y="1394"/>
    </contour>
    <contour>
      <point x="682" y="735" type="line"/>
      <point x="739" y="946"/>
      <point x="867" y="1389"/>
      <point x="918" y="1580" type="curve" smooth="yes"/>
      <point x="923" y="1597"/>
      <point x="918" y="1608"/>
      <point x="904" y="1608" type="curve" smooth="yes"/>
      <point x="890" y="1608"/>
      <point x="879" y="1597"/>
      <point x="874" y="1580" type="curve" smooth="yes"/>
      <point x="814" y="1355"/>
      <point x="712" y="932"/>
      <point x="660" y="735" type="curve"/>
    </contour>
    <contour>
      <point x="617" y="697" type="line"/>
      <point x="563" y="500"/>
      <point x="439" y="77"/>
      <point x="378" y="-148" type="curve" smooth="yes"/>
      <point x="374" y="-165"/>
      <point x="379" y="-176"/>
      <point x="393" y="-176" type="curve" smooth="yes"/>
      <point x="407" y="-176"/>
      <point x="418" y="-165"/>
      <point x="422" y="-148" type="curve" smooth="yes"/>
      <point x="474" y="44"/>
      <point x="583" y="486"/>
      <point x="639" y="697" type="curve"/>
    </contour>
  </outline>
</glyph>
<glyph name="slash" format="2">
  <advance width="775"/>
  <unicode hex="002F"/>
  <outline>
    <contour>
      <point x="411" y="604" type="curve" smooth="yes"/>
      <point x="506.91155595235756" y="790.8277183655298"/>
      <point x="742.1109949229183" y="1227.214528002279"/>
      <point x="861" y="1457" type="curve" smooth="yes"/>
      <point x="868" y="1475"/>
      <point x="867" y="1486"/>
      <point x="856" y="1491" type="curve" smooth="yes"/>
      <point x="843" y="1497"/>
      <point x="832" y="1489"/>
      <point x="823" y="1472" type="curve" smooth="yes"/>
      <point x="721" y="1276"/>
      <point x="492.3426977966507" y="812.6656245665716"/>
      <point x="388" y="610" type="curve" smooth="yes"/>
      <point x="286.09618811218695" y="412.1867181001277"/>
      <point x="43" y="-37"/>
      <point x="-54" y="-230" type="curve" smooth="yes"/>
      <point x="-63" y="-248"/>
      <point x="-60" y="-259"/>
      <point x="-49" y="-264" type="curve" smooth="yes"/>
      <point x="-36" y="-270"/>
      <point x="-25" y="-263"/>
      <point x="-15" y="-243" type="curve" smooth="yes"/>
      <point x="101" y="-16"/>
      <point x="313.90198759819265" y="417.8120586934415"/>
    </contour>
  </outline>
</glyph>
<glyph name="D" format="2">
  <advance width="1481"/>
  <unicode hex="0044"/>
  <anchor x="1015" y="1485" name="center"/>
  <outline>
    <contour>
      <point x="-40" y="7" type="curve" smooth="yes"/>
      <point x="-40" y="2"/>
      <point x="-36" y="0"/>
      <point x="-28" y="0" type="curve" smooth="yes"/>
      <point x="614" y="0" type="line" smooth="yes"/>
      <point x="1089" y="0"/>
      <point x="1387" y="269"/>
      <point x="1473" y="687" type="curve" smooth="yes"/>
      <point x="1571" y="1163"/>
      <point x="1338" y="1400"/>
      <point x="978" y="1400" type="curve" smooth="yes"/>
      <point x="325" y="1400" type="line" smooth="yes"/>
      <point x="316" y="1400"/>
      <point x="311" y="1397"/>
      <point x="311" y="1392" type="curve" smooth="yes"/>
      <point x="311" y="1387"/>
      <point x="313" y="1383"/>
      <point x="324" y="1382" type="curve" smooth="yes"/>
      <point x="398" y="1372" type="line" smooth="yes"/>
      <point x="429" y="1368"/>
      <point x="437" y="1354"/>
      <point x="430" y="1321" type="curve" smooth="yes"/>
      <point x="417" y="1260"/>
      <point x="132" y="210"/>
      <point x="96" y="76" type="curve" smooth="yes"/>
      <point x="89" y="50"/>
      <point x="77" y="31"/>
      <point x="52" y="28" type="curve" smooth="yes"/>
      <point x="-27" y="17" type="line" smooth="yes"/>
      <point x="-36" y="16"/>
      <point x="-40" y="12"/>
    </contour>
    <contour>
      <point x="632" y="24" type="curve" smooth="yes"/>
      <point x="609" y="24" type="line" smooth="yes"/>
      <point x="537.1578947368421" y="24"/>
      <point x="517.7225047203362" y="75.85800019523015"/>
      <point x="544" y="184" type="curve" smooth="yes"/>
      <point x="563" y="263"/>
      <point x="793" y="1143"/>
      <point x="821" y="1244" type="curve" smooth="yes"/>
      <point x="846" y="1335"/>
      <point x="894" y="1376.0"/>
      <point x="952" y="1376" type="curve" smooth="yes"/>
      <point x="965" y="1376" type="line" smooth="yes"/>
      <point x="1094.5492957746478" y="1376"/>
      <point x="1146.1497397560265" y="1187.662737068339"/>
      <point x="1038" y="709" type="curve" smooth="yes"/>
      <point x="918" y="177"/>
      <point x="757" y="24.0"/>
    </contour>
  </outline>
</glyph>
<glyph name="I" format="2">
  <advance width="803"/>
  <unicode hex="0049"/>
  <anchor x="705" y="1468" name="center"/>
  <outline>
    <contour>
      <point x="512" y="64" type="curve" smooth="yes"/>
      <point x="524" y="120"/>
      <point x="827" y="1296"/>
      <point x="837" y="1324" type="curve" smooth="yes"/>
      <point x="850" y="1358"/>
      <point x="860" y="1369"/>
      <point x="880" y="1372" type="curve" smooth="yes"/>
      <point x="959" y="1383" type="line" smooth="yes"/>
      <point x="969" y="1384"/>
      <point x="972" y="1389"/>
      <point x="972" y="1393" type="curve" smooth="yes"/>
      <point x="972" y="1397"/>
      <point x="969" y="1400"/>
      <point x="960" y="1400" type="curve" smooth="yes"/>
      <point x="320" y="1400" type="line" smooth="yes"/>
      <point x="311" y="1400"/>
      <point x="306" y="1397"/>
      <point x="306" y="1392" type="curve" smooth="yes"/>
      <point x="306" y="1387"/>
      <point x="308" y="1383"/>
      <point x="319" y="1382" type="curve" smooth="yes"/>
      <point x="393" y="1372" type="line" smooth="yes"/>
      <point x="424" y="1368"/>
      <point x="431" y="1354"/>
      <point x="427" y="1328" type="curve" smooth="yes"/>
      <point x="419" y="1294"/>
      <point x="108" y="126"/>
      <point x="94" y="76" type="curve" smooth="yes"/>
      <point x="85" y="46"/>
      <point x="71" y="31"/>
      <point x="50" y="28" type="curve" smooth="yes"/>
      <point x="-29" y="17" type="line" smooth="yes"/>
      <point x="-38" y="16"/>
      <point x="-42" y="12"/>
      <point x="-42" y="7" type="curve" smooth="yes"/>
      <point x="-42" y="2"/>
      <point x="-38" y="0"/>
      <point x="-30" y="0" type="curve" smooth="yes"/>
      <point x="618" y="0" type="line" smooth="yes"/>
      <point x="629" y="0"/>
      <point x="634" y="3"/>
      <point x="634" y="9" type="curve" smooth="yes"/>
      <point x="634" y="14"/>
      <point x="629" y="17"/>
      <point x="616" y="19" type="curve" smooth="yes"/>
      <point x="543" y="29" type="line" smooth="yes"/>
      <point x="515" y="33"/>
      <point x="508" y="48"/>
    </contour>
  </outline>
</glyph>
<glyph name="K" format="2">
  <advance width="1485"/>
  <unicode hex="004B"/>
  <anchor x="703" y="1487" name="center"/>
  <outline>
    <contour>
      <point x="514" y="64" type="curve" smooth="yes"/>
      <point x="526" y="120"/>
      <point x="833" y="1296"/>
      <point x="843" y="1324" type="curve" smooth="yes"/>
      <point x="851" y="1350"/>
      <point x="856" y="1355"/>
      <point x="880" y="1360" type="curve" smooth="yes"/>
      <point x="978" y="1380" type="line" smooth="yes"/>
      <point x="988" y="1382"/>
      <point x="990" y="1386"/>
      <point x="990" y="1390" type="curve" smooth="yes"/>
      <point x="990" y="1396"/>
      <point x="986" y="1400"/>
      <point x="978" y="1400" type="curve" smooth="yes"/>
      <point x="325" y="1400" type="line" smooth="yes"/>
      <point x="316" y="1400"/>
      <point x="311" y="1397"/>
      <point x="311" y="1392" type="curve" smooth="yes"/>
      <point x="311" y="1386"/>
      <point x="314" y="1383"/>
      <point x="324" y="1382" type="curve" smooth="yes"/>
      <point x="398" y="1372" type="line" smooth="yes"/>
      <point x="430" y="1368"/>
      <point x="437" y="1354"/>
      <point x="431" y="1325" type="curve" smooth="yes"/>
      <point x="423" y="1291"/>
      <point x="110" y="126"/>
      <point x="96" y="76" type="curve" smooth="yes"/>
      <point x="88" y="50"/>
      <point x="76" y="31"/>
      <point x="52" y="28" type="curve" smooth="yes"/>
      <point x="-27" y="17" type="line" smooth="yes"/>
      <point x="-36" y="16"/>
      <point x="-40" y="12"/>
      <point x="-40" y="7" type="curve" smooth="yes"/>
      <point x="-40" y="2"/>
      <point x="-36" y="0"/>
      <point x="-28" y="0" type="curve" smooth="yes"/>
      <point x="620" y="0" type="line" smooth="yes"/>
      <point x="631" y="0"/>
      <point x="636" y="3"/>
      <point x="636" y="9" type="curve" smooth="yes"/>
      <point x="636" y="15"/>
      <point x="628" y="18"/>
      <point x="618" y="19" type="curve" smooth="yes"/>
      <point x="545" y="29" type="line" smooth="yes"/>
      <point x="517" y="33"/>
      <point x="510" y="48"/>
    </contour>
    <contour>
      <point x="762" y="703" type="line"/>
      <point x="897" y="136" type="line" smooth="yes"/>
      <point x="927.5098669123224" y="7.858558968245717"/>
      <point x="985.5072463768116" y="-30.0"/>
      <point x="1094" y="-30" type="curve" smooth="yes"/>
      <point x="1261.171270718232" y="-30.0"/>
      <point x="1384.6960183027234" y="53.392036605446606"/>
      <point x="1463" y="210" type="curve" smooth="yes"/>
      <point x="1466" y="216"/>
      <point x="1467" y="220"/>
      <point x="1463" y="222" type="curve" smooth="yes"/>
      <point x="1459" y="224"/>
      <point x="1455" y="221"/>
      <point x="1450" y="213" type="curve" smooth="yes"/>
      <point x="1419" y="164"/>
      <point x="1393" y="144.0"/>
      <point x="1363" y="144" type="curve" smooth="yes"/>
      <point x="1332" y="144"/>
      <point x="1303" y="163"/>
      <point x="1287" y="222" type="curve" smooth="yes"/>
      <point x="1063" y="1043" type="line"/>
    </contour>
    <contour>
      <point x="499" y="383" type="line"/>
      <point x="1120" y="1091" type="line" smooth="yes"/>
      <point x="1197" y="1179"/>
      <point x="1260" y="1194"/>
      <point x="1371" y="1194" type="curve" smooth="yes"/>
      <point x="1401" y="1194.0"/>
      <point x="1429" y="1192.0"/>
      <point x="1476" y="1192" type="curve" smooth="yes"/>
      <point x="1589" y="1192.0"/>
      <point x="1650.0" y="1250.0"/>
      <point x="1650" y="1331" type="curve" smooth="yes"/>
      <point x="1650.0" y="1393.0"/>
      <point x="1605" y="1440.0"/>
      <point x="1527" y="1440" type="curve" smooth="yes"/>
      <point x="1436" y="1440.0"/>
      <point x="1348" y="1385"/>
      <point x="1245" y="1267" type="curve" smooth="yes"/>
      <point x="482" y="400" type="line"/>
    </contour>
  </outline>
</glyph>
<glyph name="k" format="2">
  <advance width="1128"/>
  <unicode hex="006B"/>
  <anchor x="441" y="980" name="center"/>
  <outline>
    <contour>
      <point x="478" y="551" type="curve"/>
      <point x="469" y="553" type="line"/>
      <point x="558" y="767"/>
      <point x="730" y="916"/>
      <point x="931" y="916" type="curve" smooth="yes"/>
      <point x="1051" y="916"/>
      <point x="1149" y="847"/>
      <point x="1128" y="701" type="curve" smooth="yes"/>
      <point x="1103" y="525"/>
      <point x="912" y="422"/>
      <point x="401" y="350" type="curve"/>
      <point x="398" y="371" type="line"/>
      <point x="628" y="399"/>
      <point x="760" y="504"/>
      <point x="793" y="694" type="curve" smooth="yes"/>
      <point x="805" y="764"/>
      <point x="774" y="806"/>
      <point x="736" y="806" type="curve" smooth="yes"/>
      <point x="637" y="806"/>
      <point x="497" y="649"/>
      <point x="423" y="362" type="curve" smooth="yes"/>
      <point x="398" y="265"/>
      <point x="395" y="202"/>
      <point x="395" y="152" type="curve" smooth="yes"/>
      <point x="395" y="121"/>
      <point x="415" y="106"/>
      <point x="415" y="78" type="curve" smooth="yes"/>
      <point x="415" y="18"/>
      <point x="309" y="-20"/>
      <point x="114" y="-20" type="curve" smooth="yes"/>
      <point x="-6" y="-20"/>
      <point x="-17" y="14"/>
      <point x="10" y="114" type="curve" smooth="yes"/>
      <point x="219" y="897" type="line" smooth="yes"/>
      <point x="314.2538719482697" y="1253.8601996913644"/>
      <point x="547" y="1470"/>
      <point x="917" y="1470" type="curve" smooth="yes"/>
      <point x="1102" y="1470"/>
      <point x="1203" y="1404"/>
      <point x="1203" y="1316" type="curve" smooth="yes"/>
      <point x="1203" y="1259"/>
      <point x="1161" y="1212"/>
      <point x="1092" y="1212" type="curve" smooth="yes"/>
      <point x="958" y="1212"/>
      <point x="873.3622291021672" y="1422.0"/>
      <point x="771" y="1422" type="curve" smooth="yes"/>
      <point x="734" y="1422"/>
      <point x="706.0813481121928" y="1385.299508958528"/>
      <point x="684" y="1304" type="curve" smooth="yes"/>
      <point x="561" y="858"/>
      <point x="504" y="676"/>
    </contour>
    <contour>
      <point x="509" y="375" type="line"/>
      <point x="810" y="465" type="line"/>
      <point x="890" y="215" type="line" smooth="yes"/>
      <point x="905" y="168"/>
      <point x="929" y="144"/>
      <point x="961" y="144" type="curve" smooth="yes"/>
      <point x="995" y="144"/>
      <point x="1014" y="160"/>
      <point x="1058" y="219" type="curve" smooth="yes"/>
      <point x="1061" y="223"/>
      <point x="1066" y="225"/>
      <point x="1070" y="223" type="curve" smooth="yes"/>
      <point x="1074" y="221"/>
      <point x="1076" y="216"/>
      <point x="1073" y="210" type="curve" smooth="yes"/>
      <point x="994" y="41"/>
      <point x="895" y="-20"/>
      <point x="749" y="-20" type="curve" smooth="yes"/>
      <point x="648" y="-20.0"/>
      <point x="582" y="32"/>
      <point x="558" y="146" type="curve" smooth="yes"/>
    </contour>
  </outline>
</glyph>
<glyph name="z" format="2">
  <advance width="1007"/>
  <unicode hex="007A"/>
  <anchor x="696" y="998" name="center"/>
  <outline>
    <contour>
      <point x="347" y="345.0" type="curve"/>
      <point x="350" y="373.0" type="line"/>
      <point x="423" y="373.0"/>
      <point x="584" y="320.0"/>
      <point x="723" y="320.0" type="curve" smooth="yes"/>
      <point x="817" y="320.0"/>
      <point x="925" y="329"/>
      <point x="972" y="407.0" type="curve" smooth="yes"/>
      <point x="978" y="417.0"/>
      <point x="980" y="420.0"/>
      <point x="985" y="419.0" type="curve" smooth="yes"/>
      <point x="989" y="418.0"/>
      <point x="988" y="413.0"/>
      <point x="985" y="401.0" type="curve" smooth="yes"/>
      <point x="908" y="92.0"/>
      <point x="763" y="-20.0"/>
      <point x="596" y="-20.0" type="curve" smooth="yes"/>
      <point x="354" y="-20.0"/>
      <point x="419" y="337"/>
      <point x="376" y="348.0" type="curve" smooth="yes"/>
      <point x="317" y="363"/>
      <point x="315" y="-20.0"/>
      <point x="105" y="-20.0" type="curve" smooth="yes"/>
      <point x="39" y="-20.0"/>
      <point x="-4" y="22"/>
      <point x="-4" y="80.0" type="curve" smooth="yes"/>
      <point x="-4" y="158.0"/>
      <point x="39" y="225.0"/>
      <point x="143" y="275.0" type="curve" smooth="yes"/>
      <point x="273" y="336.0"/>
      <point x="418" y="404.0"/>
      <point x="557" y="470.0" type="curve" smooth="yes"/>
      <point x="653" y="516.0"/>
      <point x="742" y="561.0"/>
      <point x="769" y="574.0" type="curve"/>
      <point x="743" y="535.0" type="line"/>
      <point x="578" y="535.0"/>
      <point x="236" y="662.0"/>
      <point x="143" y="662.0" type="curve" smooth="yes"/>
      <point x="119" y="662.0"/>
      <point x="108" y="648.0"/>
      <point x="108" y="633.0" type="curve" smooth="yes"/>
      <point x="108" y="597.0"/>
      <point x="153" y="582.0"/>
      <point x="217" y="562.0" type="curve" smooth="yes"/>
      <point x="264" y="547.0"/>
      <point x="279" y="525.0"/>
      <point x="279" y="491.0" type="curve" smooth="yes"/>
      <point x="279" y="450.0"/>
      <point x="243" y="421.0"/>
      <point x="203" y="421.0" type="curve" smooth="yes"/>
      <point x="135" y="421.0"/>
      <point x="82" y="476.0"/>
      <point x="82" y="564.0" type="curve" smooth="yes"/>
      <point x="82" y="736.0"/>
      <point x="231" y="926.0"/>
      <point x="427" y="926.0" type="curve" smooth="yes"/>
      <point x="664" y="926.0"/>
      <point x="708" y="569.0"/>
      <point x="745" y="569.0" type="curve" smooth="yes"/>
      <point x="793" y="569.0"/>
      <point x="767" y="926.0"/>
      <point x="969" y="926.0" type="curve" smooth="yes"/>
      <point x="1042" y="926.0"/>
      <point x="1081" y="878.0"/>
      <point x="1081" y="814.0" type="curve" smooth="yes"/>
      <point x="1081" y="730.0"/>
      <point x="1024" y="669.0"/>
      <point x="913" y="614.0" type="curve" smooth="yes"/>
      <point x="816" y="568.0"/>
      <point x="693" y="508.0"/>
      <point x="569" y="449.0" type="curve" smooth="yes"/>
      <point x="471" y="402.0"/>
      <point x="374" y="358.0"/>
    </contour>
  </outline>
</glyph>
<glyph name="cent" format="2">
  <advance width="907"/>
  <unicode hex="00A2"/>
  <outline>
    <contour>
      <point x="496" y="538" type="curve" smooth="yes"/>
      <point x="570" y="813"/>
      <point x="609" y="957"/>
      <point x="635" y="1051" type="curve" smooth="yes"/>
      <point x="636" y="1058"/>
      <point x="633" y="1061"/>
      <point x="629" y="1061" type="curve" smooth="yes"/>
      <point x="624" y="1061"/>
      <point x="619" y="1058"/>
      <point x="618" y="1051" type="curve" smooth="yes"/>
      <point x="592" y="957"/>
      <point x="555" y="813"/>
      <point x="481" y="538" type="curve" smooth="yes"/>
      <point x="380" y="159"/>
      <point x="322" y="-52"/>
      <point x="288" y="-178" type="curve" smooth="yes"/>
      <point x="286" y="-186"/>
      <point x="289" y="-189"/>
      <point x="293" y="-189" type="curve" smooth="yes"/>
      <point x="299" y="-189"/>
      <point x="303" y="-185"/>
      <point x="305" y="-179" type="curve" smooth="yes"/>
      <point x="341" y="-43"/>
      <point x="396" y="164"/>
    </contour>
    <contour>
      <point x="936" y="652" type="curve" smooth="yes"/>
      <point x="976" y="803"/>
      <point x="880" y="916"/>
      <point x="629" y="916" type="curve" smooth="yes"/>
      <point x="347" y="916"/>
      <point x="93" y="711"/>
      <point x="15" y="422" type="curve" smooth="yes"/>
      <point x="-63" y="130"/>
      <point x="76" y="-20"/>
      <point x="322" y="-20" type="curve" smooth="yes"/>
      <point x="553" y="-20"/>
      <point x="744" y="111"/>
      <point x="837" y="330" type="curve" smooth="yes"/>
      <point x="840" y="337"/>
      <point x="839" y="341"/>
      <point x="836" y="342" type="curve" smooth="yes"/>
      <point x="832" y="343"/>
      <point x="827" y="340"/>
      <point x="824" y="334" type="curve" smooth="yes"/>
      <point x="777" y="239"/>
      <point x="683" y="200"/>
      <point x="564" y="200" type="curve" smooth="yes"/>
      <point x="408" y="200"/>
      <point x="336" y="337"/>
      <point x="405" y="594" type="curve" smooth="yes"/>
      <point x="457" y="786"/>
      <point x="528" y="892"/>
      <point x="599" y="892" type="curve" smooth="yes"/>
      <point x="643" y="892"/>
      <point x="661" y="850"/>
      <point x="639" y="770" type="curve" smooth="yes"/>
      <point x="613" y="670" type="line" smooth="yes"/>
      <point x="581" y="551"/>
      <point x="626" y="488"/>
      <point x="730" y="488" type="curve" smooth="yes"/>
      <point x="832" y="488"/>
      <point x="909" y="552"/>
    </contour>
  </outline>
</glyph>
<glyph name="section" format="2">
  <advance width="1104"/>
  <unicode hex="00A7"/>
  <outline>
    <contour>
      <point x="569" y="193" type="line"/>
      <point x="821" y="216"/>
      <point x="1005" y="369"/>
      <point x="1056" y="558" type="curve" smooth="yes"/>
      <point x="1104" y="739"/>
      <point x="1038" y="859"/>
      <point x="766" y="962" type="curve" smooth="yes"/>
      <point x="617" y="1018"/>
      <point x="583" y="1097"/>
      <point x="616" y="1219" type="curve" smooth="yes"/>
      <point x="645" y="1329"/>
      <point x="729" y="1400"/>
      <point x="822" y="1400" type="curve" smooth="yes"/>
      <point x="939" y="1400"/>
      <point x="1037" y="1329"/>
      <point x="1157" y="999" type="curve" smooth="yes"/>
      <point x="1159" y="994"/>
      <point x="1163" y="990"/>
      <point x="1168" y="992" type="curve" smooth="yes"/>
      <point x="1170" y="994"/>
      <point x="1174" y="997"/>
      <point x="1174" y="1007" type="curve" smooth="yes"/>
      <point x="1188" y="1413" type="line" smooth="yes"/>
      <point x="1188" y="1423"/>
      <point x="1182" y="1428"/>
      <point x="1175" y="1428" type="curve" smooth="yes"/>
      <point x="1146" y="1428"/>
      <point x="1031" y="1368"/>
      <point x="998" y="1368" type="curve" smooth="yes"/>
      <point x="969" y="1368"/>
      <point x="923" y="1421"/>
      <point x="804" y="1421" type="curve" smooth="yes"/>
      <point x="530" y="1421"/>
      <point x="306" y="1270"/>
      <point x="248" y="1054" type="curve" smooth="yes"/>
      <point x="198" y="865"/>
      <point x="269" y="732"/>
      <point x="530" y="637" type="curve" smooth="yes"/>
      <point x="794" y="541"/>
      <point x="862" y="478"/>
      <point x="830" y="359" type="curve" smooth="yes"/>
      <point x="809" y="280"/>
      <point x="714" y="225"/>
      <point x="545" y="218" type="curve"/>
    </contour>
    <contour>
      <point x="576" y="819" type="line"/>
      <point x="324" y="796"/>
      <point x="140" y="643"/>
      <point x="90" y="454" type="curve" smooth="yes"/>
      <point x="41" y="273"/>
      <point x="107" y="153"/>
      <point x="379" y="50" type="curve" smooth="yes"/>
      <point x="528" y="-6"/>
      <point x="562" y="-85"/>
      <point x="530" y="-207" type="curve" smooth="yes"/>
      <point x="500" y="-317"/>
      <point x="416" y="-388"/>
      <point x="323" y="-388" type="curve" smooth="yes"/>
      <point x="206" y="-388"/>
      <point x="108" y="-317"/>
      <point x="-12" y="13" type="curve" smooth="yes"/>
      <point x="-14" y="18"/>
      <point x="-18" y="22"/>
      <point x="-23" y="20" type="curve" smooth="yes"/>
      <point x="-25" y="18"/>
      <point x="-29" y="15"/>
      <point x="-29" y="5" type="curve" smooth="yes"/>
      <point x="-42" y="-401" type="line" smooth="yes"/>
      <point x="-43" y="-411"/>
      <point x="-36" y="-416"/>
      <point x="-29" y="-416" type="curve" smooth="yes"/>
      <point x="0" y="-416"/>
      <point x="115" y="-356"/>
      <point x="148" y="-356" type="curve" smooth="yes"/>
      <point x="177" y="-356"/>
      <point x="222" y="-409"/>
      <point x="341" y="-409" type="curve" smooth="yes"/>
      <point x="615" y="-409"/>
      <point x="839" y="-258"/>
      <point x="897" y="-42" type="curve" smooth="yes"/>
      <point x="947" y="147"/>
      <point x="876" y="280"/>
      <point x="615" y="375" type="curve" smooth="yes"/>
      <point x="362" y="467"/>
      <point x="269" y="514"/>
      <point x="302" y="639" type="curve" smooth="yes"/>
      <point x="328" y="736"/>
      <point x="455" y="799"/>
      <point x="580" y="794" type="curve"/>
    </contour>
  </outline>
</glyph>
<glyph name="threesuperior" format="2">
  <advance width="606"/>
  <unicode hex="00B3"/>
  <outline>
    <contour>
      <point x="402" y="1074" type="line"/>
      <point x="844" y="1384" type="line" smooth="yes"/>
      <point x="850" y="1388"/>
      <point x="853" y="1391"/>
      <point x="854" y="1394" type="curve" smooth="yes"/>
      <point x="855" y="1398"/>
      <point x="852" y="1400"/>
      <point x="847" y="1400" type="curve" smooth="yes"/>
      <point x="352" y="1400" type="line" smooth="yes"/>
      <point x="341" y="1400"/>
      <point x="332" y="1392"/>
      <point x="328" y="1380" type="curve" smooth="yes"/>
      <point x="227" y="1111" type="line" smooth="yes"/>
      <point x="226" y="1108"/>
      <point x="226" y="1104"/>
      <point x="230" y="1104" type="curve" smooth="yes"/>
      <point x="233" y="1104"/>
      <point x="235" y="1106"/>
      <point x="237" y="1109" type="curve" smooth="yes"/>
      <point x="281" y="1178" type="line" smooth="yes"/>
      <point x="289" y="1191"/>
      <point x="300" y="1198"/>
      <point x="315" y="1198" type="curve" smooth="yes"/>
      <point x="566" y="1198" type="line"/>
      <point x="561" y="1204" type="line"/>
      <point x="395" y="1085" type="line" smooth="yes"/>
      <point x="390" y="1082"/>
      <point x="387" y="1079"/>
      <point x="386" y="1075" type="curve" smooth="yes"/>
      <point x="385" y="1071"/>
      <point x="388" y="1066"/>
      <point x="396" y="1066" type="curve" smooth="yes"/>
      <point x="425" y="1066" type="line" smooth="yes"/>
      <point x="476" y="1066"/>
      <point x="495" y="1004"/>
      <point x="462" y="882" type="curve" smooth="yes"/>
      <point x="428" y="753"/>
      <point x="394" y="719"/>
      <point x="354" y="719" type="curve" smooth="yes"/>
      <point x="318" y="719"/>
      <point x="304" y="758"/>
      <point x="317" y="807" type="curve" smooth="yes"/>
      <point x="337" y="881" type="line" smooth="yes"/>
      <point x="354" y="945"/>
      <point x="321" y="990"/>
      <point x="267" y="990" type="curve" smooth="yes"/>
      <point x="205" y="990"/>
      <point x="142" y="942"/>
      <point x="126" y="881" type="curve" smooth="yes"/>
      <point x="100" y="782"/>
      <point x="177" y="704"/>
      <point x="349" y="704" type="curve" smooth="yes"/>
      <point x="537" y="704"/>
      <point x="684" y="777"/>
      <point x="715" y="892" type="curve" smooth="yes"/>
      <point x="749" y="1021"/>
      <point x="637" y="1080"/>
      <point x="433" y="1080" type="curve" smooth="yes"/>
      <point x="429" y="1080"/>
      <point x="405" y="1080"/>
      <point x="399" y="1080" type="curve"/>
    </contour>
  </outline>
</glyph>
<glyph name="mu.math" format="2">
  <advance width="1127"/>
  <unicode hex="00B5"/>
  <outline>
    <contour>
      <point x="39" y="219" type="line"/>
      <point x="-36" y="-60"/>
      <point x="-183" y="-199"/>
      <point x="-212" y="-305" type="curve" smooth="yes"/>
      <point x="-231" y="-375"/>
      <point x="-195" y="-418"/>
      <point x="-130" y="-418" type="curve" smooth="yes"/>
      <point x="-64" y="-418"/>
      <point x="-7" y="-375"/>
      <point x="12" y="-305" type="curve" smooth="yes"/>
      <point x="41" y="-199"/>
      <point x="-26" y="-60"/>
      <point x="49" y="219" type="curve"/>
    </contour>
    <contour>
      <point x="648" y="217" type="line"/>
      <point x="601" y="184" type="line" smooth="yes"/>
      <point x="560" y="155"/>
      <point x="513" y="138"/>
      <point x="473" y="138" type="curve" smooth="yes"/>
      <point x="410" y="138"/>
      <point x="389" y="174"/>
      <point x="411" y="256" type="curve" smooth="yes"/>
      <point x="584" y="902" type="line" smooth="yes"/>
      <point x="586" y="910"/>
      <point x="582" y="916"/>
      <point x="573" y="916" type="curve" smooth="yes"/>
      <point x="565" y="916"/>
      <point x="562" y="915"/>
      <point x="545" y="911" type="curve" smooth="yes"/>
      <point x="214" y="825" type="line" smooth="yes"/>
      <point x="205" y="823"/>
      <point x="199" y="817"/>
      <point x="196" y="806" type="curve" smooth="yes"/>
      <point x="38" y="218" type="line" smooth="yes"/>
      <point x="-7" y="50"/>
      <point x="60" y="-20"/>
      <point x="184" y="-20" type="curve" smooth="yes"/>
      <point x="283" y="-20"/>
      <point x="425" y="37"/>
      <point x="609" y="167" type="curve" smooth="yes"/>
      <point x="658" y="202" type="line"/>
    </contour>
    <contour>
      <point x="740" y="-20" type="curve" smooth="yes"/>
      <point x="946" y="-20"/>
      <point x="1038" y="94"/>
      <point x="1051" y="142" type="curve" smooth="yes"/>
      <point x="1052" y="146"/>
      <point x="1051" y="148"/>
      <point x="1047" y="148" type="curve" smooth="yes"/>
      <point x="1038" y="148"/>
      <point x="1004" y="86"/>
      <point x="976" y="86" type="curve" smooth="yes"/>
      <point x="956" y="86"/>
      <point x="944" y="102"/>
      <point x="953" y="134" type="curve" smooth="yes"/>
      <point x="1159" y="902" type="line" smooth="yes"/>
      <point x="1161" y="910"/>
      <point x="1157" y="916"/>
      <point x="1148" y="916" type="curve" smooth="yes"/>
      <point x="1140" y="916"/>
      <point x="1136" y="915"/>
      <point x="1120" y="911" type="curve" smooth="yes"/>
      <point x="791" y="826" type="line" smooth="yes"/>
      <point x="781" y="823"/>
      <point x="773" y="814"/>
      <point x="770" y="803" type="curve" smooth="yes"/>
      <point x="602" y="177" type="line"/>
      <point x="601" y="170" type="line" smooth="yes"/>
      <point x="566" y="42"/>
      <point x="621" y="-20"/>
    </contour>
  </outline>
</glyph>
<glyph name="paragraph" format="2">
  <advance width="1364"/>
  <unicode hex="00B6"/>
  <outline>
    <contour>
      <point x="160" y="915" type="curve" smooth="yes"/>
      <point x="89" y="649"/>
      <point x="231" y="493"/>
      <point x="511" y="493" type="curve" smooth="yes"/>
      <point x="572" y="493"/>
      <point x="602" y="505"/>
      <point x="621" y="509" type="curve"/>
      <point x="501" y="58" type="line" smooth="yes"/>
      <point x="496" y="42"/>
      <point x="478" y="33"/>
      <point x="447" y="28" type="curve" smooth="yes"/>
      <point x="388" y="18" type="line" smooth="yes"/>
      <point x="375" y="16"/>
      <point x="371" y="14"/>
      <point x="369" y="8" type="curve" smooth="yes"/>
      <point x="368" y="4"/>
      <point x="371" y="0"/>
      <point x="379" y="0" type="curve"/>
      <point x="1180" y="0" type="line" smooth="yes"/>
      <point x="1188" y="0"/>
      <point x="1193" y="4"/>
      <point x="1194" y="8" type="curve" smooth="yes"/>
      <point x="1196" y="14"/>
      <point x="1192" y="16"/>
      <point x="1181" y="18" type="curve" smooth="yes"/>
      <point x="1128" y="28" type="line" smooth="yes"/>
      <point x="1099" y="33"/>
      <point x="1085" y="42"/>
      <point x="1090" y="58" type="curve" smooth="yes"/>
      <point x="1434" y="1342" type="line" smooth="yes"/>
      <point x="1438" y="1358"/>
      <point x="1456" y="1367"/>
      <point x="1488" y="1372" type="curve" smooth="yes"/>
      <point x="1546" y="1382" type="line" smooth="yes"/>
      <point x="1559" y="1384"/>
      <point x="1563" y="1386"/>
      <point x="1565" y="1392" type="curve" smooth="yes"/>
      <point x="1566" y="1396"/>
      <point x="1563" y="1400"/>
      <point x="1555" y="1400" type="curve" smooth="yes"/>
      <point x="840" y="1400" type="line" smooth="yes"/>
      <point x="487" y="1400"/>
      <point x="239" y="1210"/>
    </contour>
    <contour>
      <point x="853" y="55" type="line" smooth="yes"/>
      <point x="847" y="35"/>
      <point x="823" y="22"/>
      <point x="786" y="22" type="curve" smooth="yes"/>
      <point x="750" y="22"/>
      <point x="730" y="33"/>
      <point x="736" y="55" type="curve" smooth="yes"/>
      <point x="1081" y="1342" type="line" smooth="yes"/>
      <point x="1086" y="1364"/>
      <point x="1113" y="1379"/>
      <point x="1147" y="1379" type="curve" smooth="yes"/>
      <point x="1185" y="1379"/>
      <point x="1203" y="1363"/>
      <point x="1198" y="1342" type="curve" smooth="yes"/>
    </contour>
  </outline>
</glyph>
<glyph name="AE" format="2">
  <advance width="1901"/>
  <unicode hex="00C6"/>
  <anchor x="1489.0" y="1592" name="center"/>
  <outline>
    <contour>
      <point x="1080" y="1400" type="line"/>
      <point x="897" y="1400" type="line" smooth="yes"/>
      <point x="889" y="1400"/>
      <point x="885" y="1398"/>
      <point x="883" y="1392" type="curve" smooth="yes"/>
      <point x="881" y="1386"/>
      <point x="885" y="1378"/>
      <point x="909" y="1370" type="curve" smooth="yes"/>
      <point x="963" y="1352"/>
      <point x="962" y="1296"/>
      <point x="906" y="1223" type="curve" smooth="yes"/>
      <point x="127" y="228" type="line" smooth="yes"/>
      <point x="39" y="115"/>
      <point x="-65" y="45"/>
      <point x="-126" y="25" type="curve" smooth="yes"/>
      <point x="-148" y="18" type="line" smooth="yes"/>
      <point x="-155" y="16"/>
      <point x="-161" y="14"/>
      <point x="-163" y="8" type="curve" smooth="yes"/>
      <point x="-164" y="4"/>
      <point x="-162" y="0"/>
      <point x="-155" y="0" type="curve" smooth="yes"/>
      <point x="229" y="0" type="line" smooth="yes"/>
      <point x="236" y="0"/>
      <point x="240" y="4"/>
      <point x="241" y="8" type="curve" smooth="yes"/>
      <point x="242" y="13"/>
      <point x="240" y="15"/>
      <point x="232" y="18" type="curve" smooth="yes"/>
      <point x="213" y="24" type="line" smooth="yes"/>
      <point x="112" y="57"/>
      <point x="78" y="128"/>
      <point x="151" y="222" type="curve" smooth="yes"/>
      <point x="1034" y="1358" type="line" smooth="yes"/>
      <point x="1073" y="1358" type="line"/>
    </contour>
    <contour>
      <point x="428" y="605" type="line"/>
      <point x="416" y="582" type="line"/>
      <point x="878" y="582" type="line"/>
      <point x="880" y="605" type="line"/>
    </contour>
    <contour>
      <point x="1242" y="756" type="line"/>
      <point x="1235" y="732" type="line"/>
      <point x="1439" y="732" type="line" smooth="yes"/>
      <point x="1561" y="732"/>
      <point x="1617" y="696"/>
      <point x="1696" y="548" type="curve" smooth="yes"/>
      <point x="1702" y="540"/>
      <point x="1706" y="542"/>
      <point x="1711" y="544" type="curve" smooth="yes"/>
      <point x="1715" y="546"/>
      <point x="1719" y="552"/>
      <point x="1719" y="560" type="curve" smooth="yes"/>
      <point x="1706" y="958" type="line" smooth="yes"/>
      <point x="1706" y="966"/>
      <point x="1701" y="970"/>
      <point x="1697" y="970" type="curve" smooth="yes"/>
      <point x="1693" y="970"/>
      <point x="1688" y="968"/>
      <point x="1684" y="958" type="curve" smooth="yes"/>
      <point x="1612" y="802"/>
      <point x="1544" y="756"/>
      <point x="1416" y="756" type="curve" smooth="yes"/>
    </contour>
    <contour>
      <point x="689" y="58" type="line" smooth="yes"/>
      <point x="684" y="42"/>
      <point x="666" y="33"/>
      <point x="635" y="28" type="curve" smooth="yes"/>
      <point x="576" y="18" type="line" smooth="yes"/>
      <point x="563" y="16"/>
      <point x="559" y="14"/>
      <point x="557" y="8" type="curve" smooth="yes"/>
      <point x="556" y="4"/>
      <point x="559" y="0"/>
      <point x="567" y="0" type="curve" smooth="yes"/>
      <point x="1501" y="0" type="line" smooth="yes"/>
      <point x="1551" y="0"/>
      <point x="1587" y="-22"/>
      <point x="1595" y="-22" type="curve" smooth="yes"/>
      <point x="1599" y="-22"/>
      <point x="1602" y="-18"/>
      <point x="1612" y="2" type="curve" smooth="yes"/>
      <point x="1868" y="520" type="line" smooth="yes"/>
      <point x="1874" y="532"/>
      <point x="1873" y="536"/>
      <point x="1869" y="538" type="curve" smooth="yes"/>
      <point x="1866" y="540"/>
      <point x="1861" y="538"/>
      <point x="1853" y="530" type="curve" smooth="yes"/>
      <point x="1490" y="116"/>
      <point x="1321" y="24"/>
      <point x="1195" y="24" type="curve" smooth="yes"/>
      <point x="1157" y="24" type="line" smooth="yes"/>
      <point x="1125" y="24"/>
      <point x="1112" y="40"/>
      <point x="1121" y="74" type="curve" smooth="yes"/>
      <point x="1470" y="1376" type="line"/>
      <point x="1542" y="1376" type="line" smooth="yes"/>
      <point x="1690" y="1376"/>
      <point x="1792" y="1310"/>
      <point x="1951" y="970" type="curve" smooth="yes"/>
      <point x="1955" y="962"/>
      <point x="1958" y="960"/>
      <point x="1963" y="962" type="curve" smooth="yes"/>
      <point x="1967" y="964"/>
      <point x="1970" y="968"/>
      <point x="1972" y="980" type="curve" smooth="yes"/>
      <point x="1986" y="1398" type="line" smooth="yes"/>
      <point x="1987" y="1418"/>
      <point x="1986" y="1422"/>
      <point x="1982" y="1422" type="curve" smooth="yes"/>
      <point x="1974" y="1422"/>
      <point x="1926" y="1400"/>
      <point x="1876" y="1400" type="curve" smooth="yes"/>
      <point x="1048" y="1400" type="line"/>
    </contour>
  </outline>
</glyph>
<glyph name="germandbls" format="2">
  <advance width="1316"/>
  <unicode hex="00DF"/>
  <outline>
    <contour>
      <point x="894" y="329" type="curve" smooth="yes"/>
      <point x="960" y="576"/>
      <point x="901" y="724"/>
      <point x="716" y="724" type="curve" smooth="yes"/>
      <point x="701" y="724"/>
      <point x="696" y="728"/>
      <point x="698" y="737" type="curve" smooth="yes"/>
      <point x="700" y="743"/>
      <point x="709" y="749"/>
      <point x="723" y="749" type="curve" smooth="yes"/>
      <point x="851" y="749"/>
      <point x="944" y="887"/>
      <point x="1005" y="1116" type="curve" smooth="yes"/>
      <point x="1056" y="1305"/>
      <point x="1031" y="1411"/>
      <point x="937" y="1411" type="curve" smooth="yes"/>
      <point x="835" y="1411"/>
      <point x="728" y="1275"/>
      <point x="649" y="983" type="curve" smooth="yes"/>
      <point x="392" y="23" type="line" smooth="yes"/>
      <point x="388" y="7"/>
      <point x="380" y="0"/>
      <point x="365" y="0" type="curve" smooth="yes"/>
      <point x="-58" y="0" type="line" smooth="yes"/>
      <point x="-62" y="0"/>
      <point x="-65" y="2"/>
      <point x="-64" y="6" type="curve" smooth="yes"/>
      <point x="-63" y="10"/>
      <point x="-61" y="12"/>
      <point x="-52" y="14" type="curve" smooth="yes"/>
      <point x="23" y="32" type="line" smooth="yes"/>
      <point x="38" y="36"/>
      <point x="46" y="44"/>
      <point x="49" y="56" type="curve" smooth="yes"/>
      <point x="257" y="832" type="line" smooth="yes"/>
      <point x="260" y="842"/>
      <point x="256" y="848"/>
      <point x="250" y="850" type="curve" smooth="yes"/>
      <point x="160" y="880" type="line" smooth="yes"/>
      <point x="154" y="882"/>
      <point x="151" y="884"/>
      <point x="152" y="888" type="curve" smooth="yes"/>
      <point x="153" y="893"/>
      <point x="159" y="896"/>
      <point x="167" y="896" type="curve" smooth="yes"/>
      <point x="385" y="896" type="line"/>
      <point x="269" y="877" type="line"/>
      <point x="274" y="896" type="line" smooth="yes"/>
      <point x="356" y="1200"/>
      <point x="583" y="1430"/>
      <point x="933" y="1430" type="curve" smooth="yes"/>
      <point x="1314" y="1430"/>
      <point x="1428" y="1277"/>
      <point x="1376" y="1082" type="curve" smooth="yes"/>
      <point x="1321" y="877"/>
      <point x="1137" y="737"/>
      <point x="789" y="737" type="curve"/>
      <point x="793" y="747" type="line"/>
      <point x="1215" y="747"/>
      <point x="1343" y="587"/>
      <point x="1276" y="336" type="curve" smooth="yes"/>
      <point x="1217" y="114"/>
      <point x="1031" y="-30"/>
      <point x="829" y="-30" type="curve" smooth="yes"/>
      <point x="664" y="-30"/>
      <point x="626" y="82"/>
      <point x="617" y="82" type="curve" smooth="yes"/>
      <point x="605" y="82"/>
      <point x="468" y="-8"/>
      <point x="453" y="-8" type="curve" smooth="yes"/>
      <point x="445" y="-8"/>
      <point x="442" y="-4"/>
      <point x="443" y="0" type="curve" smooth="yes"/>
      <point x="527" y="312" type="line" smooth="yes"/>
      <point x="529" y="322"/>
      <point x="535" y="329"/>
      <point x="542" y="329" type="curve" smooth="yes"/>
      <point x="549" y="329"/>
      <point x="551" y="325"/>
      <point x="552" y="319" type="curve" smooth="yes"/>
      <point x="561" y="269" type="line" smooth="yes"/>
      <point x="587" y="118"/>
      <point x="629" y="82"/>
      <point x="683" y="82" type="curve" smooth="yes"/>
      <point x="758" y="82"/>
      <point x="843" y="139"/>
    </contour>
  </outline>
</glyph>
<glyph name="ae" format="2">
  <advance width="1445"/>
  <unicode hex="00E6"/>
  <outline>
    <contour>
      <point x="579" y="414" type="curve"/>
      <point x="591" y="422" type="line"/>
      <point x="568" y="445"/>
      <point x="543" y="458"/>
      <point x="483" y="458" type="curve" smooth="yes"/>
      <point x="167" y="458"/>
      <point x="19" y="361"/>
      <point x="-24" y="200" type="curve" smooth="yes"/>
      <point x="-59" y="72"/>
      <point x="29" y="-20"/>
      <point x="183" y="-20" type="curve" smooth="yes"/>
      <point x="322" y="-20"/>
      <point x="466" y="41"/>
      <point x="560" y="156" type="curve"/>
      <point x="548" y="164" type="line"/>
      <point x="509" y="113"/>
      <point x="453" y="85"/>
      <point x="399" y="85" type="curve" smooth="yes"/>
      <point x="347" y="85"/>
      <point x="314" y="134"/>
      <point x="345" y="250" type="curve" smooth="yes"/>
      <point x="379" y="378"/>
      <point x="432" y="438"/>
      <point x="491" y="438" type="curve" smooth="yes"/>
      <point x="528" y="438"/>
      <point x="552" y="433"/>
    </contour>
    <contour>
      <point x="1450" y="496" type="curve" smooth="yes"/>
      <point x="1514" y="736"/>
      <point x="1398" y="916"/>
      <point x="1136" y="916" type="curve" smooth="yes"/>
      <point x="975" y="916"/>
      <point x="819" y="853"/>
      <point x="758" y="769" type="curve"/>
      <point x="889" y="768" type="line"/>
      <point x="894" y="863"/>
      <point x="806" y="916"/>
      <point x="652" y="916" type="curve" smooth="yes"/>
      <point x="367" y="916"/>
      <point x="188" y="782"/>
      <point x="158" y="672" type="curve" smooth="yes"/>
      <point x="135" y="587"/>
      <point x="176" y="546"/>
      <point x="250" y="546" type="curve" smooth="yes"/>
      <point x="359" y="546"/>
      <point x="455" y="625"/>
      <point x="479" y="714" type="curve" smooth="yes"/>
      <point x="508" y="820" type="line" smooth="yes"/>
      <point x="521" y="868"/>
      <point x="557" y="898"/>
      <point x="603" y="898" type="curve" smooth="yes"/>
      <point x="639" y="898"/>
      <point x="659" y="868"/>
      <point x="646" y="820" type="curve" smooth="yes"/>
      <point x="552" y="472" type="line" smooth="yes"/>
      <point x="456" y="112"/>
      <point x="583" y="-20"/>
      <point x="870" y="-20" type="curve" smooth="yes"/>
      <point x="1120" y="-20"/>
      <point x="1354" y="152"/>
      <point x="1415" y="380" type="curve" smooth="yes"/>
      <point x="1417" y="388"/>
      <point x="1414" y="390"/>
      <point x="1410" y="390" type="curve" smooth="yes"/>
      <point x="1408" y="390"/>
      <point x="1403" y="388"/>
      <point x="1401" y="382" type="curve" smooth="yes"/>
      <point x="1368" y="258"/>
      <point x="1245" y="178"/>
      <point x="1097" y="178" type="curve" smooth="yes"/>
      <point x="913" y="178"/>
      <point x="825" y="298"/>
      <point x="899" y="574" type="curve" smooth="yes"/>
      <point x="965" y="820"/>
      <point x="1033" y="894"/>
      <point x="1087" y="894" type="curve" smooth="yes"/>
      <point x="1139" y="894"/>
      <point x="1170" y="786"/>
      <point x="1098" y="518" type="curve" smooth="yes"/>
      <point x="1094" y="504"/>
      <point x="1086" y="496"/>
      <point x="1074" y="496" type="curve" smooth="yes"/>
      <point x="842" y="496" type="line"/>
      <point x="835" y="472" type="line"/>
      <point x="1415" y="472" type="line" smooth="yes"/>
      <point x="1435" y="472"/>
      <point x="1446" y="482"/>
    </contour>
  </outline>
</glyph>
<glyph name="eth" format="2">
  <advance width="1017"/>
  <unicode hex="00F0"/>
  <outline>
    <contour>
      <point x="1051" y="576" type="curve" smooth="yes"/>
      <point x="1187" y="1084"/>
      <point x="907" y="1442"/>
      <point x="481" y="1509" type="curve" smooth="yes"/>
      <point x="471" y="1511"/>
      <point x="462" y="1508"/>
      <point x="460" y="1502" type="curve" smooth="yes"/>
      <point x="459" y="1495"/>
      <point x="462" y="1491"/>
      <point x="472" y="1487" type="curve" smooth="yes"/>
      <point x="634" y="1430"/>
      <point x="710" y="1231"/>
      <point x="672" y="814" type="curve"/>
      <point x="685" y="816" type="line"/>
      <point x="675" y="887"/>
      <point x="634" y="914"/>
      <point x="550" y="914" type="curve" smooth="yes"/>
      <point x="340" y="914"/>
      <point x="127" y="737"/>
      <point x="55" y="466" type="curve" smooth="yes"/>
      <point x="-22" y="178"/>
      <point x="115" y="-20"/>
      <point x="406" y="-20" type="curve" smooth="yes"/>
      <point x="679" y="-20"/>
      <point x="945" y="179"/>
    </contour>
    <contour>
      <point x="433" y="432" type="curve" smooth="yes"/>
      <point x="471" y="732"/>
      <point x="525" y="873"/>
      <point x="590" y="882" type="curve" smooth="yes"/>
      <point x="674" y="895"/>
      <point x="697" y="772"/>
      <point x="660" y="462" type="curve" smooth="yes"/>
      <point x="624" y="155"/>
      <point x="563" y="10"/>
      <point x="489" y="0" type="curve" smooth="yes"/>
      <point x="413" y="-11"/>
      <point x="394" y="125"/>
    </contour>
    <contour>
      <point x="358" y="1103" type="curve" smooth="yes"/>
      <point x="358" y="1096"/>
      <point x="365" y="1096"/>
      <point x="370" y="1098" type="curve" smooth="yes"/>
      <point x="1127" y="1412" type="line" smooth="yes"/>
      <point x="1135" y="1415"/>
      <point x="1138" y="1420"/>
      <point x="1138" y="1426" type="curve" smooth="yes"/>
      <point x="1136" y="1431"/>
      <point x="1133" y="1434"/>
      <point x="1124" y="1430" type="curve" smooth="yes"/>
      <point x="367" y="1116" type="line" smooth="yes"/>
      <point x="360" y="1113"/>
      <point x="356" y="1108"/>
    </contour>
  </outline>
</glyph>
<glyph name="oslash" format="2">
  <advance width="1048"/>
  <unicode hex="00F8"/>
  <outline>
    <contour>
      <point x="-3" y="-59" type="curve" smooth="yes"/>
      <point x="0" y="-62"/>
      <point x="4" y="-62"/>
      <point x="9" y="-57" type="curve"/>
      <point x="294" y="204" type="line"/>
      <point x="341" y="248" type="line"/>
      <point x="780" y="649" type="line"/>
      <point x="813" y="678" type="line"/>
      <point x="1090" y="932" type="line" smooth="yes"/>
      <point x="1094" y="936"/>
      <point x="1094" y="940"/>
      <point x="1090" y="942" type="curve" smooth="yes"/>
      <point x="1087" y="945"/>
      <point x="1083" y="944"/>
      <point x="1079" y="940" type="curve"/>
      <point x="803" y="687" type="line"/>
      <point x="770" y="656" type="line"/>
      <point x="332" y="256" type="line"/>
      <point x="284" y="213" type="line"/>
      <point x="-1" y="-49" type="line" smooth="yes"/>
      <point x="-5" y="-53"/>
      <point x="-6" y="-57"/>
    </contour>
    <component base="o" xOffset="-100"/>
  </outline>
</glyph>
<glyph name="thorn" format="2">
  <advance width="1075"/>
  <unicode hex="00FE"/>
  <outline>
    <contour>
      <point x="723" y="1498" type="line" smooth="yes"/>
      <point x="726" y="1506"/>
      <point x="722" y="1512"/>
      <point x="713" y="1512" type="curve" smooth="yes"/>
      <point x="705" y="1512"/>
      <point x="702" y="1511"/>
      <point x="685" y="1507" type="curve" smooth="yes"/>
      <point x="278" y="1402" type="line" smooth="yes"/>
      <point x="271" y="1400"/>
      <point x="267" y="1398"/>
      <point x="265" y="1393" type="curve" smooth="yes"/>
      <point x="264" y="1387"/>
      <point x="266" y="1384"/>
      <point x="275" y="1384" type="curve" smooth="yes"/>
      <point x="314" y="1384" type="line" smooth="yes"/>
      <point x="326" y="1384"/>
      <point x="330" y="1379"/>
      <point x="327" y="1368" type="curve" smooth="yes"/>
      <point x="-148" y="-402" type="line" smooth="yes"/>
      <point x="-153" y="-423"/>
      <point x="-163" y="-436"/>
      <point x="-182" y="-440" type="curve" smooth="yes"/>
      <point x="-222" y="-449" type="line" smooth="yes"/>
      <point x="-232" y="-451"/>
      <point x="-236" y="-454"/>
      <point x="-237" y="-458" type="curve" smooth="yes"/>
      <point x="-238" y="-464"/>
      <point x="-235" y="-466"/>
      <point x="-229" y="-466" type="curve" smooth="yes"/>
      <point x="261" y="-466" type="line" smooth="yes"/>
      <point x="267" y="-466"/>
      <point x="272" y="-464"/>
      <point x="273" y="-458" type="curve" smooth="yes"/>
      <point x="274" y="-454"/>
      <point x="272" y="-451"/>
      <point x="264" y="-449" type="curve" smooth="yes"/>
      <point x="228" y="-440" type="line" smooth="yes"/>
      <point x="211" y="-436"/>
      <point x="209" y="-423"/>
      <point x="214" y="-402" type="curve"/>
    </contour>
    <contour>
      <point x="499" y="744" type="line"/>
      <point x="557" y="813"/>
      <point x="615" y="846"/>
      <point x="669" y="846" type="curve" smooth="yes"/>
      <point x="749" y="846"/>
      <point x="772" y="748"/>
      <point x="692" y="449" type="curve" smooth="yes"/>
      <point x="601" y="108"/>
      <point x="515" y="26"/>
      <point x="419" y="26" type="curve" smooth="yes"/>
      <point x="367" y="26"/>
      <point x="339" y="52"/>
      <point x="333" y="108" type="curve"/>
      <point x="304" y="96" type="line"/>
      <point x="325" y="15"/>
      <point x="378" y="-20"/>
      <point x="501" y="-20" type="curve" smooth="yes"/>
      <point x="755" y="-20"/>
      <point x="988" y="178"/>
      <point x="1068" y="479" type="curve" smooth="yes"/>
      <point x="1143" y="756"/>
      <point x="1037" y="916"/>
      <point x="805" y="916" type="curve" smooth="yes"/>
      <point x="688" y="916"/>
      <point x="592" y="866"/>
      <point x="488" y="762" type="curve"/>
    </contour>
  </outline>
</glyph>
<glyph name="aogonek" format="2">
  <advance width="1000"/>
  <unicode hex="0105"/>
  <outline>
    <contour>
      <point x="805" y="35" type="line"/>
      <point x="511" y="-99"/>
      <point x="379" y="-197"/>
      <point x="349" y="-311" type="curve" smooth="yes"/>
      <point x="314" y="-439"/>
      <point x="400" y="-489"/>
      <point x="575" y="-489" type="curve" smooth="yes"/>
      <point x="671" y="-489"/>
      <point x="746" y="-450"/>
      <point x="786" y="-397" type="curve" smooth="yes"/>
      <point x="793" y="-387"/>
      <point x="793" y="-380"/>
      <point x="790" y="-377" type="curve" smooth="yes"/>
      <point x="785" y="-374"/>
      <point x="777" y="-377"/>
      <point x="772" y="-385" type="curve" smooth="yes"/>
      <point x="746" y="-418"/>
      <point x="697" y="-444"/>
      <point x="654" y="-444" type="curve" smooth="yes"/>
      <point x="606" y="-444"/>
      <point x="575" y="-409"/>
      <point x="600" y="-319" type="curve" smooth="yes"/>
      <point x="645" y="-151"/>
      <point x="731" y="-21"/>
      <point x="808" y="24" type="curve"/>
    </contour>
    <component base="a" xOffset="-100"/>
  </outline>
</glyph>
<glyph name="eogonek" format="2">
  <advance width="956"/>
  <unicode hex="0119"/>
  <outline>
    <contour>
      <point x="448" y="18" type="line"/>
      <point x="149" y="-97"/>
      <point x="27" y="-192"/>
      <point x="-4" y="-311" type="curve" smooth="yes"/>
      <point x="-39" y="-439"/>
      <point x="47" y="-489"/>
      <point x="222" y="-489" type="curve" smooth="yes"/>
      <point x="318" y="-489"/>
      <point x="393" y="-450"/>
      <point x="433" y="-397" type="curve" smooth="yes"/>
      <point x="440" y="-387"/>
      <point x="440" y="-380"/>
      <point x="437" y="-377" type="curve" smooth="yes"/>
      <point x="432" y="-374"/>
      <point x="424" y="-377"/>
      <point x="419" y="-385" type="curve" smooth="yes"/>
      <point x="393" y="-418"/>
      <point x="344" y="-444"/>
      <point x="301" y="-444" type="curve" smooth="yes"/>
      <point x="253.0" y="-444.0"/>
      <point x="222.0" y="-409.0"/>
      <point x="247" y="-319" type="curve" smooth="yes"/>
      <point x="298" y="-126"/>
      <point x="363" y="-27"/>
      <point x="451" y="7" type="curve"/>
    </contour>
    <component base="e" xOffset="-100"/>
  </outline>
</glyph>
<glyph name="iogonek" format="2">
  <advance width="552"/>
  <unicode hex="012F"/>
  <outline>
    <contour>
      <point x="341" y="25" type="line"/>
      <point x="49" y="-108"/>
      <point x="-84" y="-200"/>
      <point x="-113" y="-311" type="curve" smooth="yes"/>
      <point x="-148" y="-439"/>
      <point x="-62" y="-489"/>
      <point x="113" y="-489" type="curve" smooth="yes"/>
      <point x="209" y="-489"/>
      <point x="284" y="-450"/>
      <point x="324" y="-397" type="curve" smooth="yes"/>
      <point x="331" y="-387"/>
      <point x="331" y="-380"/>
      <point x="328" y="-377" type="curve" smooth="yes"/>
      <point x="323" y="-374"/>
      <point x="315" y="-377"/>
      <point x="310" y="-385" type="curve" smooth="yes"/>
      <point x="284" y="-418"/>
      <point x="235" y="-444"/>
      <point x="192" y="-444" type="curve" smooth="yes"/>
      <point x="144" y="-444"/>
      <point x="113" y="-409"/>
      <point x="138" y="-319" type="curve" smooth="yes"/>
      <point x="181" y="-156"/>
      <point x="267" y="-31"/>
      <point x="344" y="14" type="curve"/>
    </contour>
    <component base="i" xOffset="-100"/>
  </outline>
</glyph>
<glyph name="dotlessi" format="2">
  <advance width="552"/>
  <unicode hex="0131"/>
  <outline>
    <contour>
      <point x="605" y="906" type="line" smooth="yes"/>
      <point x="607" y="914"/>
      <point x="604" y="920"/>
      <point x="595" y="920" type="curve" smooth="yes"/>
      <point x="587" y="920"/>
      <point x="583" y="919"/>
      <point x="566" y="915" type="curve" smooth="yes"/>
      <point x="159" y="810" type="line" smooth="yes"/>
      <point x="153" y="808"/>
      <point x="148" y="806"/>
      <point x="147" y="801" type="curve" smooth="yes"/>
      <point x="145" y="795"/>
      <point x="147" y="792"/>
      <point x="156" y="792" type="curve" smooth="yes"/>
      <point x="195" y="792" type="line" smooth="yes"/>
      <point x="207" y="792"/>
      <point x="211" y="787"/>
      <point x="208" y="776" type="curve" smooth="yes"/>
      <point x="17" y="64" type="line" smooth="yes"/>
      <point x="12" y="43"/>
      <point x="2" y="30"/>
      <point x="-17" y="26" type="curve" smooth="yes"/>
      <point x="-57" y="17" type="line" smooth="yes"/>
      <point x="-67" y="15"/>
      <point x="-71" y="12"/>
      <point x="-72" y="8" type="curve" smooth="yes"/>
      <point x="-73" y="2"/>
      <point x="-70" y="0"/>
      <point x="-64" y="0" type="curve" smooth="yes"/>
      <point x="426" y="0" type="line" smooth="yes"/>
      <point x="432" y="0"/>
      <point x="437" y="2"/>
      <point x="438" y="8" type="curve" smooth="yes"/>
      <point x="439" y="12"/>
      <point x="437" y="15"/>
      <point x="429" y="17" type="curve" smooth="yes"/>
      <point x="393" y="26" type="line" smooth="yes"/>
      <point x="376" y="30"/>
      <point x="374" y="43"/>
      <point x="379" y="64" type="curve" smooth="yes"/>
    </contour>
  </outline>
</glyph>
<glyph name="kra" format="2">
  <advance width="1133"/>
  <unicode hex="0138"/>
  <outline>
    <contour>
      <point x="-64" y="0" type="curve" smooth="yes"/>
      <point x="426" y="0" type="line" smooth="yes"/>
      <point x="432" y="0"/>
      <point x="437" y="2"/>
      <point x="438" y="8" type="curve" smooth="yes"/>
      <point x="439" y="12"/>
      <point x="437" y="15"/>
      <point x="429" y="17" type="curve" smooth="yes"/>
      <point x="393" y="26" type="line" smooth="yes"/>
      <point x="376" y="30"/>
      <point x="374" y="43"/>
      <point x="379" y="64" type="curve" smooth="yes"/>
      <point x="605" y="907" type="line" smooth="yes"/>
      <point x="607" y="915"/>
      <point x="604" y="921"/>
      <point x="595" y="921" type="curve" smooth="yes"/>
      <point x="587" y="921"/>
      <point x="584" y="920"/>
      <point x="566" y="916" type="curve" smooth="yes"/>
      <point x="159" y="811" type="line" smooth="yes"/>
      <point x="153" y="809"/>
      <point x="148" y="807"/>
      <point x="147" y="802" type="curve" smooth="yes"/>
      <point x="145" y="796"/>
      <point x="147" y="793"/>
      <point x="156" y="793" type="curve" smooth="yes"/>
      <point x="195" y="793" type="line" smooth="yes"/>
      <point x="207" y="793"/>
      <point x="211" y="788"/>
      <point x="208" y="777" type="curve" smooth="yes"/>
      <point x="17" y="64" type="line" smooth="yes"/>
      <point x="12" y="43"/>
      <point x="2" y="30"/>
      <point x="-17" y="26" type="curve" smooth="yes"/>
      <point x="-57" y="17" type="line" smooth="yes"/>
      <point x="-67" y="15"/>
      <point x="-71" y="12"/>
      <point x="-72" y="8" type="curve" smooth="yes"/>
      <point x="-73" y="2"/>
      <point x="-70" y="0"/>
    </contour>
    <contour>
      <point x="401" y="339" type="line"/>
      <point x="412" y="322" type="line"/>
      <point x="886" y="698" type="line" smooth="yes"/>
      <point x="1004" y="791"/>
      <point x="1121" y="849"/>
      <point x="1255" y="879" type="curve" smooth="yes"/>
      <point x="1264" y="881"/>
      <point x="1268" y="884"/>
      <point x="1269" y="888" type="curve" smooth="yes"/>
      <point x="1271" y="894"/>
      <point x="1267" y="896"/>
      <point x="1261" y="896" type="curve" smooth="yes"/>
      <point x="823" y="896" type="line" smooth="yes"/>
      <point x="817" y="896"/>
      <point x="813" y="894"/>
      <point x="811" y="888" type="curve" smooth="yes"/>
      <point x="810" y="885"/>
      <point x="812" y="881"/>
      <point x="821" y="879" type="curve" smooth="yes"/>
      <point x="856" y="870" type="line" smooth="yes"/>
      <point x="943" y="848"/>
      <point x="954" y="774"/>
      <point x="866" y="705" type="curve" smooth="yes"/>
    </contour>
    <contour>
      <point x="835" y="671" type="line"/>
      <point x="502" y="404" type="line"/>
      <point x="586" y="64" type="line" smooth="yes"/>
      <point x="591" y="42"/>
      <point x="582" y="33"/>
      <point x="551" y="26" type="curve" smooth="yes"/>
      <point x="511" y="17" type="line" smooth="yes"/>
      <point x="501" y="15"/>
      <point x="497" y="12"/>
      <point x="496" y="8" type="curve" smooth="yes"/>
      <point x="495" y="2"/>
      <point x="498" y="0"/>
      <point x="504" y="0" type="curve" smooth="yes"/>
      <point x="1049" y="0" type="line" smooth="yes"/>
      <point x="1055" y="0"/>
      <point x="1060" y="2"/>
      <point x="1061" y="6" type="curve" smooth="yes"/>
      <point x="1062" y="10"/>
      <point x="1060" y="11"/>
      <point x="1052" y="17" type="curve" smooth="yes"/>
      <point x="1037" y="27"/>
      <point x="1028" y="36"/>
      <point x="1021" y="57" type="curve" smooth="yes"/>
    </contour>
  </outline>
</glyph>
<glyph name="lslash" format="2">
  <advance width="572"/>
  <unicode hex="0142"/>
  <outline>
    <contour>
      <point x="75" y="592" type="curve" smooth="yes"/>
      <point x="76" y="587"/>
      <point x="80" y="587"/>
      <point x="85" y="589" type="curve" smooth="yes"/>
      <point x="360" y="739" type="line"/>
      <point x="472" y="784" type="line"/>
      <point x="717" y="920" type="line" smooth="yes"/>
      <point x="721" y="922"/>
      <point x="723" y="927"/>
      <point x="722" y="931" type="curve" smooth="yes"/>
      <point x="722" y="935"/>
      <point x="717" y="936"/>
      <point x="712" y="934" type="curve" smooth="yes"/>
      <point x="477" y="802" type="line"/>
      <point x="360" y="755" type="line"/>
      <point x="82" y="603" type="line" smooth="yes"/>
      <point x="77" y="601"/>
      <point x="73" y="595"/>
    </contour>
    <component base="l" xOffset="-100"/>
  </outline>
</glyph>
<glyph name="Eng" format="2">
  <advance width="1364"/>
  <unicode hex="014A"/>
  <outline>
    <contour>
      <point x="637" y="290" type="line" smooth="yes"/>
      <point x="716" y="-10"/>
      <point x="1043" y="40"/>
      <point x="980" y="-195" type="curve" smooth="yes"/>
      <point x="938" y="-349"/>
      <point x="813" y="-442"/>
      <point x="669" y="-442" type="curve" smooth="yes"/>
      <point x="629" y="-442"/>
      <point x="623" y="-423"/>
      <point x="636" y="-374" type="curve" smooth="yes"/>
      <point x="673" y="-236" type="line" smooth="yes"/>
      <point x="700" y="-136"/>
      <point x="652" y="-68"/>
      <point x="562" y="-68" type="curve" smooth="yes"/>
      <point x="474" y="-68"/>
      <point x="400" y="-118"/>
      <point x="371" y="-228" type="curve" smooth="yes"/>
      <point x="336" y="-358"/>
      <point x="395" y="-464"/>
      <point x="660" y="-464" type="curve" smooth="yes"/>
      <point x="810" y="-464"/>
      <point x="960" y="-359"/>
      <point x="1003" y="-196" type="curve" smooth="yes"/>
      <point x="1368" y="1173" type="line" smooth="yes"/>
      <point x="1399" y="1288"/>
      <point x="1487" y="1350"/>
      <point x="1581" y="1376" type="curve" smooth="yes"/>
      <point x="1602" y="1382" type="line" smooth="yes"/>
      <point x="1609" y="1384"/>
      <point x="1615" y="1386"/>
      <point x="1617" y="1392" type="curve" smooth="yes"/>
      <point x="1618" y="1396"/>
      <point x="1616" y="1400"/>
      <point x="1609" y="1400" type="curve" smooth="yes"/>
      <point x="1225" y="1400" type="line" smooth="yes"/>
      <point x="1218" y="1400"/>
      <point x="1214" y="1396"/>
      <point x="1213" y="1392" type="curve" smooth="yes"/>
      <point x="1212" y="1387"/>
      <point x="1214" y="1385"/>
      <point x="1222" y="1382" type="curve" smooth="yes"/>
      <point x="1241" y="1376" type="line" smooth="yes"/>
      <point x="1322" y="1350"/>
      <point x="1375" y="1287"/>
      <point x="1344" y="1173" type="curve" smooth="yes"/>
      <point x="1092" y="231" type="line"/>
      <point x="1107" y="234" type="line"/>
      <point x="823" y="1386" type="line" smooth="yes"/>
      <point x="821" y="1396"/>
      <point x="815" y="1400"/>
      <point x="809" y="1400" type="curve" smooth="yes"/>
      <point x="341" y="1400" type="line" smooth="yes"/>
      <point x="333" y="1400"/>
      <point x="331" y="1398"/>
      <point x="330" y="1396" type="curve" smooth="yes"/>
      <point x="328" y="1390"/>
      <point x="336" y="1377"/>
      <point x="339" y="1364" type="curve" smooth="yes"/>
      <point x="389" y="1190" type="line" smooth="yes"/>
      <point x="394" y="1173"/>
      <point x="394" y="1170"/>
      <point x="389" y="1154" type="curve" smooth="yes"/>
      <point x="141" y="227" type="line" smooth="yes"/>
      <point x="110" y="112"/>
      <point x="22" y="50"/>
      <point x="-72" y="24" type="curve" smooth="yes"/>
      <point x="-93" y="18" type="line" smooth="yes"/>
      <point x="-100" y="16"/>
      <point x="-106" y="14"/>
      <point x="-108" y="8" type="curve" smooth="yes"/>
      <point x="-109" y="4"/>
      <point x="-107" y="0"/>
      <point x="-100" y="0" type="curve" smooth="yes"/>
      <point x="284" y="0" type="line" smooth="yes"/>
      <point x="291" y="0"/>
      <point x="295" y="4"/>
      <point x="296" y="8" type="curve" smooth="yes"/>
      <point x="297" y="13"/>
      <point x="295" y="15"/>
      <point x="287" y="18" type="curve" smooth="yes"/>
      <point x="268" y="24" type="line" smooth="yes"/>
      <point x="189" y="50"/>
      <point x="134" y="113"/>
      <point x="165" y="226" type="curve" smooth="yes"/>
      <point x="418" y="1172" type="line"/>
      <point x="403" y="1168" type="line"/>
    </contour>
  </outline>
</glyph>
<glyph name="eng" format="2">
  <advance width="1103"/>
  <unicode hex="014B"/>
  <outline>
    <contour>
      <point x="600" y="186" type="line" smooth="yes"/>
      <point x="556" y="24"/>
      <point x="802" y="-116"/>
      <point x="745" y="-327" type="curve" smooth="yes"/>
      <point x="724" y="-405"/>
      <point x="685" y="-440"/>
      <point x="631" y="-440" type="curve" smooth="yes"/>
      <point x="598" y="-440"/>
      <point x="590" y="-423"/>
      <point x="602" y="-376" type="curve" smooth="yes"/>
      <point x="640" y="-236" type="line" smooth="yes"/>
      <point x="667" y="-136"/>
      <point x="619" y="-68"/>
      <point x="529" y="-68" type="curve" smooth="yes"/>
      <point x="441" y="-68"/>
      <point x="367" y="-118"/>
      <point x="338" y="-228" type="curve" smooth="yes"/>
      <point x="303" y="-358"/>
      <point x="386" y="-464"/>
      <point x="600" y="-464" type="curve" smooth="yes"/>
      <point x="776" y="-464"/>
      <point x="904" y="-370"/>
      <point x="947" y="-208" type="curve" smooth="yes"/>
      <point x="987" y="-58"/>
      <point x="917" y="20"/>
      <point x="973" y="228" type="curve" smooth="yes"/>
      <point x="1094" y="678" type="line" smooth="yes"/>
      <point x="1139" y="846"/>
      <point x="1072" y="916"/>
      <point x="948" y="916" type="curve" smooth="yes"/>
      <point x="849" y="916"/>
      <point x="707" y="859"/>
      <point x="523" y="729" type="curve" smooth="yes"/>
      <point x="474" y="694" type="line"/>
      <point x="484" y="679" type="line" smooth="yes"/>
      <point x="531" y="712" type="line" smooth="yes"/>
      <point x="573" y="741"/>
      <point x="619" y="758"/>
      <point x="659" y="758" type="curve" smooth="yes"/>
      <point x="722" y="758"/>
      <point x="743" y="722"/>
      <point x="721" y="640" type="curve" smooth="yes"/>
    </contour>
    <contour>
      <point x="605" y="906" type="line" smooth="yes"/>
      <point x="607" y="914"/>
      <point x="604" y="920"/>
      <point x="595" y="920" type="curve" smooth="yes"/>
      <point x="587" y="920"/>
      <point x="583" y="919"/>
      <point x="566" y="915" type="curve" smooth="yes"/>
      <point x="159" y="810" type="line" smooth="yes"/>
      <point x="153" y="808"/>
      <point x="148" y="806"/>
      <point x="147" y="801" type="curve" smooth="yes"/>
      <point x="145" y="795"/>
      <point x="147" y="792"/>
      <point x="156" y="792" type="curve" smooth="yes"/>
      <point x="195" y="792" type="line" smooth="yes"/>
      <point x="207" y="792"/>
      <point x="211" y="787"/>
      <point x="208" y="776" type="curve" smooth="yes"/>
      <point x="17" y="64" type="line" smooth="yes"/>
      <point x="12" y="43"/>
      <point x="2" y="30"/>
      <point x="-17" y="26" type="curve" smooth="yes"/>
      <point x="-57" y="17" type="line" smooth="yes"/>
      <point x="-67" y="15"/>
      <point x="-71" y="12"/>
      <point x="-72" y="8" type="curve" smooth="yes"/>
      <point x="-73" y="2"/>
      <point x="-70" y="0"/>
      <point x="-64" y="0" type="curve" smooth="yes"/>
      <point x="426" y="0" type="line" smooth="yes"/>
      <point x="432" y="0"/>
      <point x="437" y="2"/>
      <point x="438" y="8" type="curve" smooth="yes"/>
      <point x="439" y="12"/>
      <point x="437" y="15"/>
      <point x="429" y="17" type="curve" smooth="yes"/>
      <point x="393" y="26" type="line" smooth="yes"/>
      <point x="376" y="30"/>
      <point x="374" y="43"/>
      <point x="379" y="64" type="curve" smooth="yes"/>
    </contour>
  </outline>
</glyph>
<glyph name="OE" format="2">
  <advance width="1986"/>
  <unicode hex="0152"/>
  <outline>
    <contour>
      <point x="1138" y="1401" type="line" smooth="yes"/>
      <point x="594" y="1401"/>
      <point x="212" y="1140"/>
      <point x="97" y="709" type="curve" smooth="yes"/>
      <point x="-28" y="242"/>
      <point x="212" y="2"/>
      <point x="752" y="1" type="curve" smooth="yes"/>
      <point x="1596" y="0" type="line" smooth="yes"/>
      <point x="1646" y="0"/>
      <point x="1682" y="-22"/>
      <point x="1690" y="-22" type="curve" smooth="yes"/>
      <point x="1694" y="-22"/>
      <point x="1697" y="-18"/>
      <point x="1707" y="2" type="curve" smooth="yes"/>
      <point x="1963" y="520" type="line" smooth="yes"/>
      <point x="1969" y="532"/>
      <point x="1968" y="536"/>
      <point x="1964" y="538" type="curve" smooth="yes"/>
      <point x="1961" y="540"/>
      <point x="1956" y="538"/>
      <point x="1948" y="530" type="curve" smooth="yes"/>
      <point x="1585" y="116"/>
      <point x="1416" y="24"/>
      <point x="1290" y="24" type="curve" smooth="yes"/>
      <point x="1252" y="24" type="line" smooth="yes"/>
      <point x="1220" y="24"/>
      <point x="1207" y="40"/>
      <point x="1216" y="74" type="curve" smooth="yes"/>
      <point x="1565" y="1376" type="line"/>
      <point x="1637" y="1376" type="line" smooth="yes"/>
      <point x="1785" y="1376"/>
      <point x="1887" y="1310"/>
      <point x="2046" y="970" type="curve" smooth="yes"/>
      <point x="2050" y="962"/>
      <point x="2053" y="960"/>
      <point x="2058" y="962" type="curve" smooth="yes"/>
      <point x="2062" y="964"/>
      <point x="2065" y="968"/>
      <point x="2067" y="980" type="curve" smooth="yes"/>
      <point x="2081" y="1398" type="line" smooth="yes"/>
      <point x="2082" y="1418"/>
      <point x="2081" y="1422"/>
      <point x="2077" y="1422" type="curve" smooth="yes"/>
      <point x="2069" y="1422"/>
      <point x="2022" y="1401"/>
      <point x="1972" y="1401" type="curve" smooth="yes"/>
    </contour>
    <contour>
      <point x="582" y="726" type="curve" smooth="yes"/>
      <point x="696" y="1152"/>
      <point x="873" y="1376"/>
      <point x="1135" y="1376" type="curve" smooth="yes"/>
      <point x="1179" y="1376" type="line"/>
      <point x="817" y="26" type="line" smooth="yes"/>
      <point x="757" y="26" type="line" smooth="yes"/>
      <point x="550" y="26"/>
      <point x="438" y="192"/>
    </contour>
    <contour>
      <point x="1337" y="756" type="line"/>
      <point x="1330" y="732" type="line"/>
      <point x="1534" y="732" type="line" smooth="yes"/>
      <point x="1656" y="732"/>
      <point x="1712" y="696"/>
      <point x="1791" y="548" type="curve" smooth="yes"/>
      <point x="1797" y="540"/>
      <point x="1801" y="542"/>
      <point x="1806" y="544" type="curve" smooth="yes"/>
      <point x="1810" y="546"/>
      <point x="1814" y="552"/>
      <point x="1814" y="560" type="curve" smooth="yes"/>
      <point x="1801" y="958" type="line" smooth="yes"/>
      <point x="1801" y="966"/>
      <point x="1796" y="970"/>
      <point x="1792" y="970" type="curve" smooth="yes"/>
      <point x="1788" y="970"/>
      <point x="1783" y="968"/>
      <point x="1779" y="958" type="curve" smooth="yes"/>
      <point x="1707" y="802"/>
      <point x="1639" y="756"/>
      <point x="1511" y="756" type="curve" smooth="yes"/>
    </contour>
  </outline>
</glyph>
<glyph name="oe" format="2">
  <advance width="1561"/>
  <unicode hex="0153"/>
  <outline>
    <contour>
      <point x="489" y="0" type="curve" smooth="yes"/>
      <point x="413" y="-11"/>
      <point x="394" y="125"/>
      <point x="433" y="432" type="curve" smooth="yes"/>
      <point x="472" y="738"/>
      <point x="528" y="881"/>
      <point x="601" y="893" type="curve" smooth="yes"/>
      <point x="678" y="904"/>
      <point x="697" y="768"/>
      <point x="660" y="462" type="curve" smooth="yes"/>
      <point x="621" y="155"/>
      <point x="563" y="10"/>
    </contour>
    <contour>
      <point x="677" y="916" type="curve" smooth="yes"/>
      <point x="389" y="916"/>
      <point x="122" y="716"/>
      <point x="49" y="444" type="curve" smooth="yes"/>
      <point x="-24" y="170"/>
      <point x="125" y="-20"/>
      <point x="411" y="-20" type="curve" smooth="yes"/>
      <point x="568" y="-20"/>
      <point x="714" y="52"/>
      <point x="827" y="161" type="curve"/>
      <point x="959" y="775" type="line"/>
      <point x="899" y="860"/>
      <point x="809" y="916"/>
    </contour>
    <contour>
      <point x="1566" y="496" type="curve" smooth="yes"/>
      <point x="1630" y="736"/>
      <point x="1514" y="916"/>
      <point x="1252" y="916" type="curve" smooth="yes"/>
      <point x="976" y="916"/>
      <point x="752" y="736"/>
      <point x="672" y="436" type="curve" smooth="yes"/>
      <point x="600" y="168"/>
      <point x="732" y="-20"/>
      <point x="986" y="-20" type="curve" smooth="yes"/>
      <point x="1236" y="-20"/>
      <point x="1470" y="152"/>
      <point x="1531" y="380" type="curve" smooth="yes"/>
      <point x="1533" y="388"/>
      <point x="1530" y="390"/>
      <point x="1526" y="390" type="curve" smooth="yes"/>
      <point x="1524" y="390"/>
      <point x="1519" y="388"/>
      <point x="1517" y="382" type="curve" smooth="yes"/>
      <point x="1484" y="258"/>
      <point x="1361" y="178"/>
      <point x="1213" y="178" type="curve" smooth="yes"/>
      <point x="1029" y="178"/>
      <point x="941" y="298"/>
      <point x="1015" y="574" type="curve" smooth="yes"/>
      <point x="1081" y="820"/>
      <point x="1149" y="894"/>
      <point x="1203" y="894" type="curve" smooth="yes"/>
      <point x="1255" y="894"/>
      <point x="1286" y="786"/>
      <point x="1214" y="518" type="curve" smooth="yes"/>
      <point x="1210" y="504"/>
      <point x="1202" y="496"/>
      <point x="1190" y="496" type="curve" smooth="yes"/>
      <point x="912" y="496" type="line"/>
      <point x="905" y="472" type="line"/>
      <point x="1531" y="472" type="line" smooth="yes"/>
      <point x="1551" y="472"/>
      <point x="1562" y="482"/>
    </contour>
  </outline>
</glyph>
<glyph name="tbar" format="2">
  <advance width="688"/>
  <unicode hex="0167"/>
  <outline>
    <contour>
      <point x="35" y="488" type="curve" smooth="yes"/>
      <point x="33" y="482"/>
      <point x="38" y="478"/>
      <point x="45" y="478" type="curve" smooth="yes"/>
      <point x="691" y="478" type="line" smooth="yes"/>
      <point x="699" y="478"/>
      <point x="704" y="482"/>
      <point x="706" y="488" type="curve" smooth="yes"/>
      <point x="707" y="494"/>
      <point x="704" y="498"/>
      <point x="696" y="498" type="curve" smooth="yes"/>
      <point x="50" y="498" type="line" smooth="yes"/>
      <point x="43" y="498"/>
      <point x="36" y="494"/>
    </contour>
    <contour>
      <point x="210" y="858" type="line" smooth="yes"/>
      <point x="219" y="856"/>
      <point x="220" y="852"/>
      <point x="217" y="840" type="curve" smooth="yes"/>
      <point x="58" y="248" type="line" smooth="yes"/>
      <point x="8" y="58"/>
      <point x="88" y="-30"/>
      <point x="286" y="-30" type="curve" smooth="yes"/>
      <point x="460" y="-30"/>
      <point x="562" y="54"/>
      <point x="639" y="228" type="curve" smooth="yes"/>
      <point x="644" y="238"/>
      <point x="632" y="238"/>
      <point x="627" y="228" type="curve" smooth="yes"/>
      <point x="583" y="132"/>
      <point x="534" y="104"/>
      <point x="486" y="104" type="curve" smooth="yes"/>
      <point x="414" y="104"/>
      <point x="383" y="161"/>
      <point x="415" y="280" type="curve" smooth="yes"/>
      <point x="635" y="1100" type="line" smooth="yes"/>
      <point x="638" y="1114"/>
      <point x="633" y="1122"/>
      <point x="623" y="1122" type="curve" smooth="yes"/>
      <point x="615" y="1122"/>
      <point x="599" y="1116"/>
      <point x="587" y="1108" type="curve" smooth="yes"/>
      <point x="240" y="902" type="line" smooth="yes"/>
      <point x="230" y="896"/>
      <point x="226" y="896"/>
      <point x="222" y="896" type="curve" smooth="yes"/>
      <point x="142" y="896" type="line" smooth="yes"/>
      <point x="138" y="896"/>
      <point x="133" y="892"/>
      <point x="132" y="888" type="curve" smooth="yes"/>
      <point x="131" y="884"/>
      <point x="132" y="880"/>
      <point x="141" y="878" type="curve" smooth="yes"/>
    </contour>
    <contour>
      <point x="469" y="870" type="line"/>
      <point x="787" y="870" type="line" smooth="yes"/>
      <point x="805" y="870"/>
      <point x="819" y="878"/>
      <point x="822" y="888" type="curve" smooth="yes"/>
      <point x="824" y="894"/>
      <point x="820" y="896"/>
      <point x="814" y="896" type="curve" smooth="yes"/>
      <point x="488" y="896" type="line"/>
    </contour>
  </outline>
</glyph>
<glyph name="Uogonek" format="2">
  <advance width="1344"/>
  <unicode hex="0172"/>
  <outline>
    <contour>
      <point x="823" y="15" type="line"/>
      <point x="555" y="-72"/>
      <point x="408" y="-177"/>
      <point x="372" y="-311" type="curve" smooth="yes"/>
      <point x="337" y="-439"/>
      <point x="423" y="-489"/>
      <point x="598" y="-489" type="curve" smooth="yes"/>
      <point x="694" y="-489"/>
      <point x="769" y="-450"/>
      <point x="809" y="-397" type="curve" smooth="yes"/>
      <point x="816" y="-387"/>
      <point x="816" y="-380"/>
      <point x="813" y="-377" type="curve" smooth="yes"/>
      <point x="808" y="-374"/>
      <point x="800" y="-377"/>
      <point x="795" y="-385" type="curve" smooth="yes"/>
      <point x="769" y="-418"/>
      <point x="720" y="-444"/>
      <point x="677" y="-444" type="curve" smooth="yes"/>
      <point x="629" y="-444"/>
      <point x="598" y="-409"/>
      <point x="623" y="-319" type="curve" smooth="yes"/>
      <point x="680" y="-103"/>
      <point x="769" y="-12"/>
      <point x="829" y="14" type="curve"/>
    </contour>
    <component base="U"/>
  </outline>
</glyph>
<glyph name="uogonek" format="2">
  <advance width="1157"/>
  <unicode hex="0173"/>
  <outline>
    <contour>
      <point x="905" y="35" type="line"/>
      <point x="611" y="-99"/>
      <point x="479" y="-197"/>
      <point x="449" y="-311" type="curve" smooth="yes"/>
      <point x="414" y="-439"/>
      <point x="500" y="-489"/>
      <point x="675" y="-489" type="curve" smooth="yes"/>
      <point x="771" y="-489"/>
      <point x="846" y="-450"/>
      <point x="886" y="-397" type="curve" smooth="yes"/>
      <point x="893" y="-387"/>
      <point x="893" y="-380"/>
      <point x="890" y="-377" type="curve" smooth="yes"/>
      <point x="885" y="-374"/>
      <point x="877" y="-377"/>
      <point x="872" y="-385" type="curve" smooth="yes"/>
      <point x="846" y="-418"/>
      <point x="797" y="-444"/>
      <point x="754" y="-444" type="curve" smooth="yes"/>
      <point x="706" y="-444"/>
      <point x="675" y="-409"/>
      <point x="700" y="-319" type="curve" smooth="yes"/>
      <point x="745" y="-151"/>
      <point x="831" y="-21"/>
      <point x="908" y="24" type="curve"/>
    </contour>
    <component base="u"/>
  </outline>
</glyph>
<glyph name="fhook" format="2">
  <advance width="878"/>
  <unicode hex="0192"/>
  <outline>
    <contour>
      <point x="747" y="891" type="line" smooth="yes"/>
      <point x="796" y="1031"/>
      <point x="592" y="1161"/>
      <point x="635" y="1323" type="curve" smooth="yes"/>
      <point x="661" y="1420"/>
      <point x="736" y="1474"/>
      <point x="811" y="1474" type="curve" smooth="yes"/>
      <point x="873" y="1474"/>
      <point x="895" y="1419"/>
      <point x="869" y="1311" type="curve" smooth="yes"/>
      <point x="858" y="1262"/>
      <point x="860" y="1221"/>
      <point x="874" y="1192" type="curve" smooth="yes"/>
      <point x="893" y="1156"/>
      <point x="928" y="1136"/>
      <point x="979" y="1136" type="curve" smooth="yes"/>
      <point x="1082" y="1136"/>
      <point x="1148" y="1191"/>
      <point x="1176" y="1295" type="curve" smooth="yes"/>
      <point x="1209" y="1419"/>
      <point x="1127" y="1509"/>
      <point x="948" y="1509" type="curve" smooth="yes"/>
      <point x="649" y="1509"/>
      <point x="475" y="1346"/>
      <point x="360" y="1043" type="curve" smooth="yes"/>
      <point x="289" y="855" type="line"/>
      <point x="321" y="896" type="line"/>
      <point x="152" y="896" type="line" smooth="yes"/>
      <point x="143" y="896"/>
      <point x="137" y="894"/>
      <point x="135" y="890" type="curve" smooth="yes"/>
      <point x="134" y="885"/>
      <point x="137" y="880"/>
      <point x="145" y="879" type="curve" smooth="yes"/>
      <point x="255" y="859" type="line" smooth="yes"/>
      <point x="275" y="855"/>
      <point x="281" y="840"/>
      <point x="271" y="811" type="curve" smooth="yes"/>
      <point x="50" y="160" type="line" smooth="yes"/>
      <point x="-20" y="-46"/>
      <point x="275" y="-31"/>
      <point x="218" y="-242" type="curve" smooth="yes"/>
      <point x="189" y="-350"/>
      <point x="99" y="-438"/>
      <point x="19" y="-438" type="curve" smooth="yes"/>
      <point x="-29" y="-438"/>
      <point x="-44" y="-409"/>
      <point x="-18" y="-285" type="curve" smooth="yes"/>
      <point x="-5" y="-219"/>
      <point x="-11" y="-168"/>
      <point x="-35" y="-136" type="curve" smooth="yes"/>
      <point x="-55" y="-109"/>
      <point x="-87" y="-94"/>
      <point x="-130" y="-94" type="curve" smooth="yes"/>
      <point x="-232" y="-94"/>
      <point x="-318" y="-165"/>
      <point x="-344" y="-263" type="curve" smooth="yes"/>
      <point x="-379" y="-393"/>
      <point x="-317" y="-490"/>
      <point x="-132" y="-490" type="curve" smooth="yes"/>
      <point x="121" y="-490"/>
      <point x="313" y="-340"/>
      <point x="459" y="76" type="curve" smooth="yes"/>
    </contour>
    <contour>
      <point x="659" y="871" type="line"/>
      <point x="937" y="871" type="line" smooth="yes"/>
      <point x="945" y="871"/>
      <point x="954" y="876"/>
      <point x="956" y="883" type="curve" smooth="yes"/>
      <point x="958" y="893"/>
      <point x="955" y="896"/>
      <point x="946" y="896" type="curve" smooth="yes"/>
      <point x="668" y="896" type="line"/>
    </contour>
  </outline>
</glyph>
<glyph name="Ohorn" format="2">
  <advance width="1455"/>
  <unicode hex="01A0"/>
  <outline>
    <contour>
      <point x="1705" y="1609" type="curve" smooth="yes"/>
      <point x="1726" y="1686"/>
      <point x="1697" y="1730"/>
      <point x="1632" y="1730" type="curve" smooth="yes"/>
      <point x="1562" y="1730"/>
      <point x="1512" y="1685"/>
      <point x="1492" y="1607" type="curve" smooth="yes"/>
      <point x="1480" y="1564" type="line" smooth="yes"/>
      <point x="1443" y="1426"/>
      <point x="1318" y="1360"/>
      <point x="1094" y="1408" type="curve" smooth="yes"/>
      <point x="1089" y="1409"/>
      <point x="1085" y="1407"/>
      <point x="1083" y="1400" type="curve" smooth="yes"/>
      <point x="1082" y="1395"/>
      <point x="1083" y="1394"/>
      <point x="1087" y="1393" type="curve" smooth="yes"/>
      <point x="1427" y="1324"/>
      <point x="1651" y="1407"/>
    </contour>
    <component base="O"/>
  </outline>
</glyph>
<glyph name="ohorn" format="2">
  <advance width="1048"/>
  <unicode hex="01A1"/>
  <outline>
    <contour>
      <point x="1226" y="1082" type="curve" smooth="yes"/>
      <point x="1248" y="1164"/>
      <point x="1223" y="1211"/>
      <point x="1157" y="1211" type="curve" smooth="yes"/>
      <point x="1093" y="1211"/>
      <point x="1042" y="1162"/>
      <point x="1020" y="1080" type="curve" smooth="yes"/>
      <point x="1003" y="1016" type="line" smooth="yes"/>
      <point x="976" y="916"/>
      <point x="917" y="876"/>
      <point x="809" y="899" type="curve" smooth="yes"/>
      <point x="804" y="900"/>
      <point x="802" y="898"/>
      <point x="801" y="895" type="curve" smooth="yes"/>
      <point x="798" y="884"/>
      <point x="798" y="880"/>
      <point x="804" y="879" type="curve" smooth="yes"/>
      <point x="1033" y="832"/>
      <point x="1187" y="936"/>
    </contour>
    <component base="o" xOffset="-100"/>
  </outline>
</glyph>
<glyph name="Uhorn" format="2">
  <advance width="1452"/>
  <unicode hex="01AF"/>
  <outline>
    <contour>
      <point x="1919" y="1618" type="curve" smooth="yes"/>
      <point x="1938" y="1689"/>
      <point x="1912" y="1732"/>
      <point x="1849" y="1732" type="curve" smooth="yes"/>
      <point x="1785" y="1732"/>
      <point x="1736" y="1688"/>
      <point x="1711" y="1593" type="curve" smooth="yes"/>
      <point x="1682" y="1487" type="line" smooth="yes"/>
      <point x="1666" y="1425"/>
      <point x="1642" y="1400"/>
      <point x="1603" y="1400" type="curve" smooth="yes"/>
      <point x="1600" y="1400"/>
      <point x="1598" y="1399"/>
      <point x="1597" y="1394" type="curve" smooth="yes"/>
      <point x="1594" y="1385"/>
      <point x="1593" y="1372"/>
      <point x="1623" y="1378" type="curve" smooth="yes"/>
      <point x="1783" y="1410"/>
      <point x="1883" y="1485"/>
    </contour>
    <contour>
      <point x="1272" y="624" type="line" smooth="yes"/>
      <point x="1260" y="564"/>
      <point x="1249" y="506"/>
      <point x="1221" y="402" type="curve" smooth="yes"/>
      <point x="1155" y="158"/>
      <point x="962" y="14"/>
      <point x="759" y="14" type="curve" smooth="yes"/>
      <point x="619" y="14"/>
      <point x="541" y="118"/>
      <point x="614" y="390" type="curve" smooth="yes"/>
      <point x="630" y="450"/>
      <point x="653" y="540"/>
      <point x="688" y="644" type="curve" smooth="yes"/>
      <point x="921" y="1342" type="line" smooth="yes"/>
      <point x="926" y="1358"/>
      <point x="943" y="1367"/>
      <point x="975" y="1372" type="curve" smooth="yes"/>
      <point x="1039" y="1382" type="line" smooth="yes"/>
      <point x="1052" y="1384"/>
      <point x="1056" y="1386"/>
      <point x="1058" y="1392" type="curve" smooth="yes"/>
      <point x="1059" y="1396"/>
      <point x="1056" y="1400"/>
      <point x="1048" y="1400" type="curve" smooth="yes"/>
      <point x="408" y="1400" type="line" smooth="yes"/>
      <point x="400" y="1400"/>
      <point x="395" y="1396"/>
      <point x="394" y="1392" type="curve" smooth="yes"/>
      <point x="392" y="1386"/>
      <point x="396" y="1384"/>
      <point x="407" y="1382" type="curve" smooth="yes"/>
      <point x="461" y="1372" type="line" smooth="yes"/>
      <point x="489" y="1367"/>
      <point x="504" y="1358"/>
      <point x="499" y="1342" type="curve" smooth="yes"/>
      <point x="263" y="636" type="line" smooth="yes"/>
      <point x="243" y="574"/>
      <point x="198" y="452"/>
      <point x="183" y="396" type="curve" smooth="yes"/>
      <point x="118" y="154"/>
      <point x="257" y="-20"/>
      <point x="670" y="-20" type="curve" smooth="yes"/>
      <point x="1017" y="-20"/>
      <point x="1186" y="176"/>
      <point x="1251" y="418" type="curve" smooth="yes"/>
      <point x="1271" y="492"/>
      <point x="1285" y="562"/>
      <point x="1299" y="634" type="curve" smooth="yes"/>
      <point x="1408" y="1176" type="line" smooth="yes"/>
      <point x="1427" y="1274"/>
      <point x="1512" y="1348"/>
      <point x="1618" y="1376" type="curve" smooth="yes"/>
      <point x="1640" y="1382" type="line" smooth="yes"/>
      <point x="1649" y="1384"/>
      <point x="1654" y="1387"/>
      <point x="1655" y="1392" type="curve" smooth="yes"/>
      <point x="1656" y="1396"/>
      <point x="1654" y="1400"/>
      <point x="1647" y="1400" type="curve" smooth="yes"/>
      <point x="1263" y="1400" type="line" smooth="yes"/>
      <point x="1256" y="1400"/>
      <point x="1252" y="1396"/>
      <point x="1251" y="1392" type="curve" smooth="yes"/>
      <point x="1250" y="1387"/>
      <point x="1252" y="1385"/>
      <point x="1260" y="1382" type="curve" smooth="yes"/>
      <point x="1279" y="1376" type="line" smooth="yes"/>
      <point x="1373" y="1345"/>
      <point x="1405" y="1281"/>
      <point x="1383" y="1171" type="curve" smooth="yes"/>
    </contour>
  </outline>
</glyph>
<glyph name="uhorn" format="2">
  <advance width="1127"/>
  <unicode hex="01B0"/>
  <outline>
    <contour>
      <point x="1485" y="1100" type="curve" smooth="yes"/>
      <point x="1507" y="1182"/>
      <point x="1479" y="1229"/>
      <point x="1410" y="1229" type="curve" smooth="yes"/>
      <point x="1348" y="1229"/>
      <point x="1298" y="1180"/>
      <point x="1276" y="1098" type="curve" smooth="yes"/>
      <point x="1264" y="1054" type="line" smooth="yes"/>
      <point x="1241" y="968"/>
      <point x="1205" y="916"/>
      <point x="1158" y="916" type="curve" smooth="yes"/>
      <point x="1156" y="916"/>
      <point x="1154" y="913"/>
      <point x="1150" y="901" type="curve" smooth="yes"/>
      <point x="1150" y="899"/>
      <point x="1150" y="897"/>
      <point x="1152" y="897" type="curve" smooth="yes"/>
      <point x="1332" y="895"/>
      <point x="1453" y="983"/>
    </contour>
    <component base="u" xOffset="-100"/>
  </outline>
</glyph>
<glyph name="Oogonek" format="2">
  <advance width="1455"/>
  <unicode hex="01EA"/>
  <outline>
    <contour>
      <point x="794" y="13" type="line"/>
      <point x="494" y="-87"/>
      <point x="376" y="-189"/>
      <point x="344" y="-311" type="curve" smooth="yes"/>
      <point x="309" y="-439"/>
      <point x="395" y="-489"/>
      <point x="570" y="-489" type="curve" smooth="yes"/>
      <point x="666" y="-489"/>
      <point x="741" y="-450"/>
      <point x="781" y="-397" type="curve" smooth="yes"/>
      <point x="788" y="-387"/>
      <point x="788" y="-380"/>
      <point x="785" y="-377" type="curve" smooth="yes"/>
      <point x="780" y="-374"/>
      <point x="772" y="-377"/>
      <point x="767" y="-385" type="curve" smooth="yes"/>
      <point x="741" y="-418"/>
      <point x="692" y="-444"/>
      <point x="649" y="-444" type="curve" smooth="yes"/>
      <point x="601" y="-444"/>
      <point x="570" y="-409"/>
      <point x="595" y="-319" type="curve" smooth="yes"/>
      <point x="653" y="-100"/>
      <point x="727" y="-20"/>
      <point x="798" y="2" type="curve"/>
    </contour>
    <component base="O"/>
  </outline>
</glyph>
<glyph name="oogonek" format="2">
  <advance width="1050"/>
  <unicode hex="01EB"/>
  <outline>
    <contour>
      <point x="611" y="8" type="line"/>
      <point x="323.55587005424326" y="-82.82436050369397"/>
      <point x="187.43770011855483" y="-206.14878883266545"/>
      <point x="160" y="-311" type="curve" smooth="yes"/>
      <point x="125" y="-439"/>
      <point x="211" y="-489"/>
      <point x="386" y="-489" type="curve" smooth="yes"/>
      <point x="482" y="-489"/>
      <point x="557" y="-450"/>
      <point x="597" y="-397" type="curve" smooth="yes"/>
      <point x="604" y="-387"/>
      <point x="604" y="-380"/>
      <point x="601" y="-377" type="curve" smooth="yes"/>
      <point x="596" y="-374"/>
      <point x="588" y="-377"/>
      <point x="583" y="-385" type="curve" smooth="yes"/>
      <point x="557" y="-418"/>
      <point x="508" y="-444"/>
      <point x="465" y="-444" type="curve" smooth="yes"/>
      <point x="417" y="-444"/>
      <point x="386" y="-409"/>
      <point x="411" y="-319" type="curve" smooth="yes"/>
      <point x="450.2148463467422" y="-170.9639550410482"/>
      <point x="519.516633463677" y="-49.69950910786139"/>
      <point x="617" y="7" type="curve"/>
    </contour>
    <component base="o"/>
  </outline>
</glyph>
<glyph name="dotlessj" format="2">
  <advance width="552"/>
  <unicode hex="0237"/>
  <outline>
    <contour>
      <point x="423" y="228" type="curve" smooth="yes"/>
      <point x="605" y="906" type="line" smooth="yes"/>
      <point x="607" y="914"/>
      <point x="604" y="920"/>
      <point x="595" y="920" type="curve" smooth="yes"/>
      <point x="587" y="920"/>
      <point x="583" y="919"/>
      <point x="566" y="915" type="curve" smooth="yes"/>
      <point x="159" y="810" type="line" smooth="yes"/>
      <point x="153" y="808"/>
      <point x="148" y="806"/>
      <point x="147" y="801" type="curve" smooth="yes"/>
      <point x="145" y="795"/>
      <point x="147" y="792"/>
      <point x="156" y="792" type="curve" smooth="yes"/>
      <point x="195" y="792" type="line" smooth="yes"/>
      <point x="207" y="792"/>
      <point x="211" y="787"/>
      <point x="208" y="776" type="curve" smooth="yes"/>
      <point x="50" y="186" type="line" smooth="yes"/>
      <point x="6" y="24"/>
      <point x="252" y="-116"/>
      <point x="195" y="-327" type="curve" smooth="yes"/>
      <point x="174" y="-405"/>
      <point x="135" y="-440"/>
      <point x="81" y="-440" type="curve" smooth="yes"/>
      <point x="48" y="-440"/>
      <point x="40" y="-423"/>
      <point x="52" y="-376" type="curve" smooth="yes"/>
      <point x="90" y="-236" type="line" smooth="yes"/>
      <point x="117" y="-136"/>
      <point x="69" y="-68"/>
      <point x="-21" y="-68" type="curve" smooth="yes"/>
      <point x="-109" y="-68"/>
      <point x="-183" y="-118"/>
      <point x="-212" y="-228" type="curve" smooth="yes"/>
      <point x="-247" y="-358"/>
      <point x="-164" y="-464"/>
      <point x="50" y="-464" type="curve" smooth="yes"/>
      <point x="226" y="-464"/>
      <point x="354" y="-370"/>
      <point x="397" y="-208" type="curve" smooth="yes"/>
      <point x="437" y="-58"/>
      <point x="367" y="20"/>
    </contour>
  </outline>
</glyph>
<glyph name="primemod" format="2">
  <advance width="298"/>
  <unicode hex="02B9"/>
  <outline>
    <contour>
      <point x="203" y="816" type="curve" smooth="yes"/>
      <point x="209" y="816"/>
      <point x="214" y="820"/>
      <point x="217" y="826" type="curve" smooth="yes"/>
      <point x="581" y="1503" type="line" smooth="yes"/>
      <point x="585" y="1511"/>
      <point x="584" y="1515"/>
      <point x="578" y="1515" type="curve" smooth="yes"/>
      <point x="574" y="1515"/>
      <point x="569" y="1513"/>
      <point x="565" y="1505" type="curve" smooth="yes"/>
      <point x="199" y="826" type="line" smooth="yes"/>
      <point x="196" y="820"/>
      <point x="199" y="816"/>
    </contour>
  </outline>
</glyph>
<glyph name="gravecmb" format="2">
  <advance width="559"/>
  <unicode hex="0300"/>
  <anchor x="508.0" y="980" name="center"/>
  <outline>
    <contour>
      <point x="593" y="1376" type="line" smooth="yes"/>
      <point x="564" y="1479"/>
      <point x="530" y="1532"/>
      <point x="445" y="1517" type="curve" smooth="yes"/>
      <point x="371" y="1504"/>
      <point x="324" y="1436"/>
      <point x="319" y="1372" type="curve" smooth="yes"/>
      <point x="311" y="1304"/>
      <point x="349" y="1270"/>
      <point x="400" y="1235" type="curve" smooth="yes"/>
      <point x="639" y="1084" type="line" smooth="yes"/>
      <point x="643" y="1082"/>
      <point x="649" y="1082"/>
      <point x="653" y="1085" type="curve" smooth="yes"/>
      <point x="658" y="1089"/>
      <point x="658" y="1094"/>
      <point x="656" y="1098" type="curve" smooth="yes"/>
    </contour>
  </outline>
</glyph>
<glyph name="acutecmb" format="2">
  <advance width="478"/>
  <unicode hex="0301"/>
  <anchor x="270.0" y="980" name="center"/>
  <outline>
    <contour>
      <point x="450" y="1376" type="curve" smooth="yes"/>
      <point x="237" y="1098" type="line" smooth="yes"/>
      <point x="233" y="1094"/>
      <point x="231" y="1089"/>
      <point x="234" y="1085" type="curve" smooth="yes"/>
      <point x="236" y="1082"/>
      <point x="242" y="1082"/>
      <point x="246" y="1084" type="curve" smooth="yes"/>
      <point x="567" y="1235" type="line" smooth="yes"/>
      <point x="637" y="1270"/>
      <point x="692" y="1304"/>
      <point x="722" y="1372" type="curve" smooth="yes"/>
      <point x="751" y="1436"/>
      <point x="740" y="1504"/>
      <point x="672" y="1517" type="curve" smooth="yes"/>
      <point x="595" y="1532"/>
      <point x="534" y="1479"/>
    </contour>
  </outline>
</glyph>
<glyph name="circumflexcmb" format="2">
  <advance width="778"/>
  <unicode hex="0302"/>
  <outline>
    <contour>
      <point x="718" y="1244" type="line"/>
      <point x="250" y="1044" type="line" smooth="yes"/>
      <point x="242" y="1041"/>
      <point x="236" y="1040"/>
      <point x="232" y="1043" type="curve" smooth="yes"/>
      <point x="230" y="1046"/>
      <point x="231" y="1052"/>
      <point x="237" y="1058" type="curve" smooth="yes"/>
      <point x="666" y="1485" type="line" smooth="yes"/>
      <point x="675" y="1494"/>
      <point x="681" y="1498"/>
      <point x="690" y="1498" type="curve" smooth="yes"/>
      <point x="699" y="1498"/>
      <point x="703" y="1494"/>
      <point x="708" y="1485" type="curve" smooth="yes"/>
      <point x="907" y="1058" type="line" smooth="yes"/>
      <point x="911" y="1052"/>
      <point x="909" y="1046"/>
      <point x="904" y="1043" type="curve" smooth="yes"/>
      <point x="901" y="1040"/>
      <point x="895" y="1041"/>
      <point x="889" y="1044" type="curve" smooth="yes"/>
      <point x="526" y="1244" type="line"/>
    </contour>
  </outline>
</glyph>
<glyph name="tildecmb" format="2">
  <advance width="774"/>
  <unicode hex="0303"/>
  <outline>
    <contour>
      <point x="498" y="1208"/>
      <point x="553" y="1054"/>
      <point x="700" y="1054" type="curve" smooth="yes"/>
      <point x="849" y="1054"/>
      <point x="943" y="1190"/>
      <point x="1003" y="1414" type="curve" smooth="yes"/>
      <point x="1005" y="1423"/>
      <point x="1004" y="1427"/>
      <point x="997" y="1427" type="curve" smooth="yes"/>
      <point x="993" y="1427"/>
      <point x="988" y="1426"/>
      <point x="987" y="1421" type="curve" smooth="yes"/>
      <point x="961" y="1318"/>
      <point x="904" y="1269"/>
      <point x="837" y="1269" type="curve" smooth="yes"/>
      <point x="747" y="1269"/>
      <point x="690" y="1423"/>
      <point x="537" y="1423" type="curve" smooth="yes"/>
      <point x="373" y="1423"/>
      <point x="298" y="1298"/>
      <point x="235" y="1063" type="curve" smooth="yes"/>
      <point x="233" y="1055"/>
      <point x="234" y="1050"/>
      <point x="240" y="1050" type="curve" smooth="yes"/>
      <point x="245" y="1050"/>
      <point x="250" y="1052"/>
      <point x="251" y="1057" type="curve" smooth="yes"/>
      <point x="282" y="1159"/>
      <point x="333" y="1208"/>
      <point x="411" y="1208" type="curve" smooth="yes"/>
    </contour>
  </outline>
</glyph>
<glyph name="macroncmb" format="2">
  <advance width="808"/>
  <unicode hex="0304"/>
  <outline>
    <contour>
      <point x="179" y="1227" type="curve" smooth="yes"/>
      <point x="155" y="1139"/>
      <point x="154" y="1119"/>
      <point x="186" y="1119" type="curve" smooth="yes"/>
      <point x="822" y="1119" type="line" smooth="yes"/>
      <point x="854" y="1119"/>
      <point x="863" y="1138"/>
      <point x="887" y="1228" type="curve" smooth="yes"/>
      <point x="913" y="1326"/>
      <point x="912" y="1337"/>
      <point x="880" y="1337" type="curve" smooth="yes"/>
      <point x="244" y="1337" type="line" smooth="yes"/>
      <point x="212" y="1337"/>
      <point x="203" y="1318"/>
    </contour>
  </outline>
</glyph>
<glyph name="brevecmb" format="2">
  <advance width="690"/>
  <unicode hex="0306"/>
  <outline>
    <contour>
      <point x="488" y="1285" type="curve" smooth="yes"/>
      <point x="372" y="1285"/>
      <point x="295" y="1331"/>
      <point x="252" y="1434" type="curve" smooth="yes"/>
      <point x="251" y="1439"/>
      <point x="248" y="1441"/>
      <point x="244" y="1441" type="curve" smooth="yes"/>
      <point x="238" y="1441"/>
      <point x="234" y="1436"/>
      <point x="232" y="1427" type="curve" smooth="yes"/>
      <point x="183" y="1152"/>
      <point x="276" y="1060"/>
      <point x="428" y="1060" type="curve" smooth="yes"/>
      <point x="583" y="1060"/>
      <point x="735" y="1177"/>
      <point x="822" y="1427" type="curve" smooth="yes"/>
      <point x="826" y="1436"/>
      <point x="823" y="1441"/>
      <point x="817" y="1441" type="curve" smooth="yes"/>
      <point x="813" y="1441"/>
      <point x="810" y="1439"/>
      <point x="805" y="1434" type="curve" smooth="yes"/>
      <point x="714" y="1341"/>
      <point x="623" y="1285"/>
    </contour>
  </outline>
</glyph>
<glyph name="dotaccentcmb" format="2">
  <advance width="500"/>
  <unicode hex="0307"/>
  <outline>
    <contour>
      <point x="310" y="1044" type="curve" smooth="yes"/>
      <point x="420" y="1044"/>
      <point x="514" y="1120"/>
      <point x="544" y="1233" type="curve" smooth="yes"/>
      <point x="574" y="1344"/>
      <point x="519" y="1419"/>
      <point x="410" y="1419" type="curve" smooth="yes"/>
      <point x="300" y="1419"/>
      <point x="205" y="1343"/>
      <point x="175" y="1233" type="curve" smooth="yes"/>
      <point x="145" y="1121"/>
      <point x="200" y="1044"/>
    </contour>
  </outline>
</glyph>
<glyph name="dieresiscmb" format="2">
  <advance width="756"/>
  <unicode hex="0308"/>
  <outline>
    <contour>
      <point x="382" y="1044" type="curve" smooth="yes"/>
      <point x="477" y="1044"/>
      <point x="561" y="1117"/>
      <point x="590" y="1224" type="curve" smooth="yes"/>
      <point x="619" y="1332"/>
      <point x="573" y="1405"/>
      <point x="478" y="1405" type="curve" smooth="yes"/>
      <point x="382" y="1405"/>
      <point x="298" y="1332"/>
      <point x="269" y="1224" type="curve" smooth="yes"/>
      <point x="240" y="1117"/>
      <point x="286" y="1044"/>
    </contour>
    <contour>
      <point x="732" y="1044" type="curve" smooth="yes"/>
      <point x="829" y="1044"/>
      <point x="914" y="1117"/>
      <point x="943" y="1224" type="curve" smooth="yes"/>
      <point x="972" y="1332"/>
      <point x="925" y="1405"/>
      <point x="828" y="1405" type="curve" smooth="yes"/>
      <point x="733" y="1405"/>
      <point x="648" y="1331"/>
      <point x="619" y="1224" type="curve" smooth="yes"/>
      <point x="590" y="1117"/>
      <point x="636" y="1044"/>
    </contour>
  </outline>
</glyph>
<glyph name="hungarumlautcmb" format="2">
  <advance width="866"/>
  <unicode hex="030B"/>
  <anchor x="458.0" y="980" name="center"/>
  <outline>
    <contour>
      <point x="424" y="1365" type="curve" smooth="yes"/>
      <point x="230" y="1063" type="line" smooth="yes"/>
      <point x="228" y="1060"/>
      <point x="227" y="1058"/>
      <point x="229" y="1056" type="curve" smooth="yes"/>
      <point x="230" y="1054"/>
      <point x="235" y="1055"/>
      <point x="237" y="1057" type="curve" smooth="yes"/>
      <point x="539" y="1263" type="line" smooth="yes"/>
      <point x="601" y="1305"/>
      <point x="655" y="1338"/>
      <point x="674" y="1398" type="curve" smooth="yes"/>
      <point x="693" y="1460"/>
      <point x="668" y="1509"/>
      <point x="606" y="1509" type="curve" smooth="yes"/>
      <point x="536" y="1510"/>
      <point x="481" y="1455"/>
    </contour>
    <contour>
      <point x="687" y="1365" type="curve" smooth="yes"/>
      <point x="493" y="1063" type="line" smooth="yes"/>
      <point x="491" y="1060"/>
      <point x="490" y="1058"/>
      <point x="492" y="1056" type="curve" smooth="yes"/>
      <point x="493" y="1054"/>
      <point x="498" y="1055"/>
      <point x="500" y="1057" type="curve" smooth="yes"/>
      <point x="802" y="1263" type="line" smooth="yes"/>
      <point x="864" y="1305"/>
      <point x="918" y="1338"/>
      <point x="937" y="1398" type="curve" smooth="yes"/>
      <point x="956" y="1460"/>
      <point x="931" y="1509"/>
      <point x="869" y="1509" type="curve" smooth="yes"/>
      <point x="799" y="1510"/>
      <point x="744" y="1455"/>
    </contour>
  </outline>
</glyph>
<glyph name="caroncmb" format="2">
  <advance width="778"/>
  <unicode hex="030C"/>
  <outline>
    <contour>
      <point x="606" y="1264" type="line"/>
      <point x="414" y="1264" type="line"/>
      <point x="904" y="1474" type="line" smooth="yes"/>
      <point x="912" y="1477"/>
      <point x="918" y="1478"/>
      <point x="920" y="1475" type="curve" smooth="yes"/>
      <point x="923" y="1472"/>
      <point x="922" y="1466"/>
      <point x="915" y="1460" type="curve" smooth="yes"/>
      <point x="487" y="1033" type="line" smooth="yes"/>
      <point x="477" y="1024"/>
      <point x="471" y="1020"/>
      <point x="462" y="1020" type="curve" smooth="yes"/>
      <point x="453" y="1020"/>
      <point x="449" y="1024"/>
      <point x="445" y="1033" type="curve" smooth="yes"/>
      <point x="245" y="1460" type="line" smooth="yes"/>
      <point x="242" y="1466"/>
      <point x="244" y="1472"/>
      <point x="248" y="1475" type="curve" smooth="yes"/>
      <point x="253" y="1478"/>
      <point x="259" y="1478"/>
      <point x="265" y="1474" type="curve" smooth="yes"/>
    </contour>
  </outline>
</glyph>
<glyph name="gravedoublecmb" format="2">
  <advance width="715"/>
  <unicode hex="030F"/>
  <anchor x="548.0" y="980" name="center"/>
  <outline>
    <contour>
      <point x="601" y="1375" type="line" smooth="yes"/>
      <point x="547" y="1458"/>
      <point x="495" y="1510"/>
      <point x="429" y="1509" type="curve" smooth="yes"/>
      <point x="367" y="1509"/>
      <point x="340" y="1455"/>
      <point x="361" y="1388" type="curve" smooth="yes"/>
      <point x="379" y="1332"/>
      <point x="428" y="1301"/>
      <point x="486" y="1263" type="curve" smooth="yes"/>
      <point x="798" y="1057" type="line" smooth="yes"/>
      <point x="800" y="1055"/>
      <point x="805" y="1054"/>
      <point x="806" y="1056" type="curve" smooth="yes"/>
      <point x="808" y="1058"/>
      <point x="807" y="1060"/>
      <point x="805" y="1063" type="curve" smooth="yes"/>
    </contour>
    <contour>
      <point x="338" y="1375" type="line" smooth="yes"/>
      <point x="284" y="1458"/>
      <point x="232" y="1510"/>
      <point x="166" y="1509" type="curve" smooth="yes"/>
      <point x="104" y="1509"/>
      <point x="77" y="1455"/>
      <point x="98" y="1388" type="curve" smooth="yes"/>
      <point x="116" y="1332"/>
      <point x="165" y="1301"/>
      <point x="223" y="1263" type="curve" smooth="yes"/>
      <point x="535" y="1057" type="line" smooth="yes"/>
      <point x="537" y="1055"/>
      <point x="542" y="1054"/>
      <point x="543" y="1056" type="curve" smooth="yes"/>
      <point x="545" y="1058"/>
      <point x="544" y="1060"/>
      <point x="542" y="1063" type="curve" smooth="yes"/>
    </contour>
  </outline>
</glyph>
<glyph name="invertedbrevecmb" format="2">
  <advance width="690"/>
  <unicode hex="0311"/>
  <outline>
    <contour>
      <point x="567" y="1206" type="curve" smooth="yes"/>
      <point x="702" y="1206"/>
      <point x="763" y="1150"/>
      <point x="804" y="1057" type="curve" smooth="yes"/>
      <point x="806" y="1052"/>
      <point x="808" y="1050"/>
      <point x="812" y="1050" type="curve" smooth="yes"/>
      <point x="818" y="1050"/>
      <point x="824" y="1055"/>
      <point x="825" y="1064" type="curve" smooth="yes"/>
      <point x="872" y="1314"/>
      <point x="782" y="1431"/>
      <point x="627" y="1431" type="curve" smooth="yes"/>
      <point x="475" y="1431"/>
      <point x="333" y="1339"/>
      <point x="235" y="1064" type="curve" smooth="yes"/>
      <point x="232" y="1055"/>
      <point x="233" y="1050"/>
      <point x="239" y="1050" type="curve" smooth="yes"/>
      <point x="243" y="1050"/>
      <point x="247" y="1052"/>
      <point x="251" y="1057" type="curve" smooth="yes"/>
      <point x="349" y="1160"/>
      <point x="451" y="1206"/>
    </contour>
  </outline>
</glyph>
<glyph name="commaturnedabovecmb" format="2">
  <advance width="466"/>
  <unicode hex="0312"/>
  <outline>
    <contour>
      <point x="399" y="1320" type="curve" smooth="yes"/>
      <point x="292" y="1320" type="line" smooth="yes"/>
      <point x="280" y="1320"/>
      <point x="274" y="1326"/>
      <point x="278" y="1339" type="curve" smooth="yes"/>
      <point x="298" y="1414"/>
      <point x="437" y="1539"/>
      <point x="606" y="1551" type="curve" smooth="yes"/>
      <point x="614" y="1552"/>
      <point x="617" y="1558"/>
      <point x="618" y="1563" type="curve" smooth="yes"/>
      <point x="619" y="1570"/>
      <point x="614" y="1572"/>
      <point x="606" y="1571" type="curve" smooth="yes"/>
      <point x="408" y="1554"/>
      <point x="238" y="1410"/>
      <point x="191" y="1237" type="curve" smooth="yes"/>
      <point x="154" y="1099"/>
      <point x="206" y="1024"/>
      <point x="323" y="1024" type="curve" smooth="yes"/>
      <point x="423" y="1024"/>
      <point x="507" y="1085"/>
      <point x="530" y="1173" type="curve" smooth="yes"/>
      <point x="551" y="1249"/>
      <point x="521" y="1320"/>
    </contour>
  </outline>
</glyph>
<glyph name="turnedcommaabovecmb" format="2">
  <advance width="422"/>
  <unicode hex="0315"/>
  <outline>
    <contour>
      <point x="397" y="1360" type="curve" smooth="yes"/>
      <point x="233" y="1065" type="line" smooth="yes"/>
      <point x="230" y="1060"/>
      <point x="231" y="1056"/>
      <point x="233" y="1054" type="curve" smooth="yes"/>
      <point x="237" y="1052"/>
      <point x="241" y="1054"/>
      <point x="246" y="1057" type="curve" smooth="yes"/>
      <point x="546" y="1272" type="line" smooth="yes"/>
      <point x="623" y="1329"/>
      <point x="651" y="1378"/>
      <point x="657" y="1435" type="curve" smooth="yes"/>
      <point x="663" y="1489"/>
      <point x="626" y="1529"/>
      <point x="566" y="1521" type="curve" smooth="yes"/>
      <point x="498" y="1511"/>
      <point x="455" y="1463"/>
    </contour>
  </outline>
</glyph>
<glyph name="horncmb" format="2">
  <advance width="475"/>
  <unicode hex="031B"/>
  <outline>
    <contour>
      <point x="515" y="1082" type="curve" smooth="yes"/>
      <point x="537" y="1164"/>
      <point x="512" y="1211"/>
      <point x="446" y="1211" type="curve" smooth="yes"/>
      <point x="382" y="1211"/>
      <point x="331" y="1162"/>
      <point x="309" y="1080" type="curve" smooth="yes"/>
      <point x="292" y="1016" type="line" smooth="yes"/>
      <point x="265" y="916"/>
      <point x="206" y="876"/>
      <point x="98" y="899" type="curve" smooth="yes"/>
      <point x="93" y="900"/>
      <point x="91" y="898"/>
      <point x="90" y="895" type="curve" smooth="yes"/>
      <point x="87" y="884"/>
      <point x="87" y="880"/>
      <point x="93" y="879" type="curve" smooth="yes"/>
      <point x="322" y="832"/>
      <point x="476" y="936"/>
    </contour>
  </outline>
</glyph>
<glyph name="dieresisbelowcmb" format="2">
  <advance width="774"/>
  <unicode hex="0324"/>
  <outline>
    <contour>
      <point x="96" y="-431" type="curve" smooth="yes"/>
      <point x="191" y="-431"/>
      <point x="275" y="-358"/>
      <point x="304" y="-251" type="curve" smooth="yes"/>
      <point x="333" y="-143"/>
      <point x="287" y="-70"/>
      <point x="192" y="-70" type="curve" smooth="yes"/>
      <point x="96" y="-70"/>
      <point x="12" y="-143"/>
      <point x="-17" y="-251" type="curve" smooth="yes"/>
      <point x="-46" y="-358"/>
      <point x="0" y="-431"/>
    </contour>
    <contour>
      <point x="446" y="-431" type="curve" smooth="yes"/>
      <point x="543" y="-431"/>
      <point x="628" y="-358"/>
      <point x="657" y="-251" type="curve" smooth="yes"/>
      <point x="686" y="-143"/>
      <point x="639" y="-70"/>
      <point x="542" y="-70" type="curve" smooth="yes"/>
      <point x="447" y="-70"/>
      <point x="361" y="-144"/>
      <point x="333" y="-251" type="curve" smooth="yes"/>
      <point x="304" y="-358"/>
      <point x="350" y="-431"/>
    </contour>
  </outline>
</glyph>
<glyph name="commaaccentbelowcmb" format="2">
  <advance width="466"/>
  <unicode hex="0326"/>
  <outline>
    <contour>
      <point x="136" y="-355" type="curve" smooth="yes"/>
      <point x="243" y="-355" type="line" smooth="yes"/>
      <point x="255" y="-355"/>
      <point x="260" y="-361"/>
      <point x="257" y="-374" type="curve" smooth="yes"/>
      <point x="242" y="-428"/>
      <point x="121" y="-515"/>
      <point x="-35" y="-526" type="curve" smooth="yes"/>
      <point x="-43" y="-527"/>
      <point x="-47" y="-533"/>
      <point x="-47" y="-538" type="curve" smooth="yes"/>
      <point x="-48" y="-545"/>
      <point x="-44" y="-547"/>
      <point x="-35" y="-546" type="curve" smooth="yes"/>
      <point x="150" y="-530"/>
      <point x="305" y="-414"/>
      <point x="343" y="-272" type="curve" smooth="yes"/>
      <point x="380" y="-134"/>
      <point x="328" y="-59"/>
      <point x="211" y="-59" type="curve" smooth="yes"/>
      <point x="111" y="-59"/>
      <point x="28" y="-120"/>
      <point x="4" y="-208" type="curve" smooth="yes"/>
      <point x="-16" y="-284"/>
      <point x="14" y="-355"/>
    </contour>
  </outline>
</glyph>
<glyph name="cedillacmb" format="2">
  <advance width="620"/>
  <unicode hex="0327"/>
  <outline>
    <contour>
      <point x="179" y="19" type="line"/>
      <point x="59" y="-154" type="line" smooth="yes"/>
      <point x="54" y="-161"/>
      <point x="52" y="-168"/>
      <point x="60" y="-168" type="curve" smooth="yes"/>
      <point x="77" y="-168" type="line" smooth="yes"/>
      <point x="151" y="-168"/>
      <point x="183" y="-214"/>
      <point x="161" y="-294" type="curve" smooth="yes"/>
      <point x="138" y="-382"/>
      <point x="86" y="-425"/>
      <point x="17" y="-425" type="curve" smooth="yes"/>
      <point x="-53" y="-425"/>
      <point x="-101" y="-387"/>
      <point x="-107" y="-284" type="curve" smooth="yes"/>
      <point x="-108" y="-279"/>
      <point x="-111" y="-276"/>
      <point x="-115" y="-276" type="curve" smooth="yes"/>
      <point x="-120" y="-276"/>
      <point x="-127" y="-282"/>
      <point x="-127" y="-291" type="curve" smooth="yes"/>
      <point x="-132" y="-409"/>
      <point x="-61" y="-466"/>
      <point x="83" y="-466" type="curve" smooth="yes"/>
      <point x="259" y="-466"/>
      <point x="363" y="-401"/>
      <point x="390" y="-300" type="curve" smooth="yes"/>
      <point x="417" y="-196"/>
      <point x="369" y="-126"/>
      <point x="229" y="-126" type="curve" smooth="yes"/>
      <point x="152" y="-126"/>
      <point x="88" y="-144"/>
      <point x="81" y="-146" type="curve"/>
      <point x="84" y="-151" type="line"/>
      <point x="200" y="19" type="line"/>
    </contour>
  </outline>
</glyph>
<glyph name="ogonekcmb" format="2">
  <advance width="563"/>
  <unicode hex="0328"/>
  <outline>
    <contour>
      <point x="423" y="35" type="line"/>
      <point x="129" y="-99"/>
      <point x="-3" y="-197"/>
      <point x="-33" y="-311" type="curve" smooth="yes"/>
      <point x="-68" y="-439"/>
      <point x="18" y="-489"/>
      <point x="193" y="-489" type="curve" smooth="yes"/>
      <point x="289" y="-489"/>
      <point x="364" y="-450"/>
      <point x="404" y="-397" type="curve" smooth="yes"/>
      <point x="411" y="-387"/>
      <point x="411" y="-380"/>
      <point x="408" y="-377" type="curve" smooth="yes"/>
      <point x="403" y="-374"/>
      <point x="395" y="-377"/>
      <point x="390" y="-385" type="curve" smooth="yes"/>
      <point x="364" y="-418"/>
      <point x="315" y="-444"/>
      <point x="272" y="-444" type="curve" smooth="yes"/>
      <point x="224" y="-444"/>
      <point x="193" y="-409"/>
      <point x="218" y="-319" type="curve" smooth="yes"/>
      <point x="263" y="-151"/>
      <point x="349" y="-21"/>
      <point x="426" y="24" type="curve"/>
    </contour>
  </outline>
</glyph>
<glyph name="belowbrevecmb" format="2">
  <advance width="690"/>
  <unicode hex="032E"/>
  <outline>
    <contour>
      <point x="284" y="-224" type="curve" smooth="yes"/>
      <point x="168" y="-224"/>
      <point x="91" y="-178"/>
      <point x="48" y="-75" type="curve" smooth="yes"/>
      <point x="46" y="-70"/>
      <point x="44" y="-68"/>
      <point x="40" y="-68" type="curve" smooth="yes"/>
      <point x="34" y="-68"/>
      <point x="29" y="-73"/>
      <point x="28" y="-82" type="curve" smooth="yes"/>
      <point x="-21" y="-357"/>
      <point x="72" y="-449"/>
      <point x="224" y="-449" type="curve" smooth="yes"/>
      <point x="379" y="-449"/>
      <point x="531" y="-332"/>
      <point x="618" y="-82" type="curve" smooth="yes"/>
      <point x="621" y="-73"/>
      <point x="619" y="-68"/>
      <point x="613" y="-68" type="curve" smooth="yes"/>
      <point x="609" y="-68"/>
      <point x="605" y="-70"/>
      <point x="601" y="-75" type="curve" smooth="yes"/>
      <point x="510" y="-168"/>
      <point x="419" y="-224"/>
    </contour>
  </outline>
</glyph>
<glyph name="macronbelowcmb" format="2">
  <advance width="808"/>
  <unicode hex="0331"/>
  <outline>
    <contour>
      <point x="-18" y="-255" type="curve" smooth="yes"/>
      <point x="-42" y="-343"/>
      <point x="-43" y="-363"/>
      <point x="-11" y="-363" type="curve" smooth="yes"/>
      <point x="625" y="-363" type="line" smooth="yes"/>
      <point x="657" y="-363"/>
      <point x="666" y="-344"/>
      <point x="690" y="-254" type="curve" smooth="yes"/>
      <point x="716" y="-156"/>
      <point x="715" y="-145"/>
      <point x="683" y="-145" type="curve" smooth="yes"/>
      <point x="47" y="-145" type="line" smooth="yes"/>
      <point x="15" y="-145"/>
      <point x="6" y="-164"/>
    </contour>
  </outline>
</glyph>
<glyph name="breveacute" format="2">
  <advance width="722"/>
  <outline>
    <contour>
      <point x="582" y="1263" type="curve" smooth="yes"/>
      <point x="478" y="1263"/>
      <point x="408" y="1304"/>
      <point x="370" y="1397" type="curve" smooth="yes"/>
      <point x="368" y="1401"/>
      <point x="366" y="1403"/>
      <point x="363" y="1403" type="curve" smooth="yes"/>
      <point x="357" y="1403"/>
      <point x="354" y="1398"/>
      <point x="352" y="1390" type="curve" smooth="yes"/>
      <point x="307" y="1143"/>
      <point x="391" y="1060"/>
      <point x="528" y="1060" type="curve" smooth="yes"/>
      <point x="668" y="1060"/>
      <point x="805" y="1165"/>
      <point x="883" y="1390" type="curve" smooth="yes"/>
      <point x="886" y="1398"/>
      <point x="884" y="1403"/>
      <point x="878" y="1403" type="curve" smooth="yes"/>
      <point x="875" y="1403"/>
      <point x="871" y="1401"/>
      <point x="867" y="1397" type="curve" smooth="yes"/>
      <point x="786" y="1313"/>
      <point x="704" y="1263"/>
    </contour>
    <contour>
      <point x="723" y="1638" type="curve" smooth="yes"/>
      <point x="552" y="1377" type="line" smooth="yes"/>
      <point x="548" y="1374"/>
      <point x="547" y="1370"/>
      <point x="549" y="1366" type="curve" smooth="yes"/>
      <point x="552" y="1364"/>
      <point x="558" y="1365"/>
      <point x="562" y="1366" type="curve" smooth="yes"/>
      <point x="843" y="1524" type="line" smooth="yes"/>
      <point x="903" y="1558"/>
      <point x="951" y="1595"/>
      <point x="974" y="1656" type="curve" smooth="yes"/>
      <point x="994" y="1712"/>
      <point x="978" y="1773"/>
      <point x="917" y="1779" type="curve" smooth="yes"/>
      <point x="847" y="1787"/>
      <point x="792" y="1734"/>
    </contour>
  </outline>
</glyph>
<glyph name="brevegrave.cap" format="2">
  <advance width="650"/>
  <anchor x="344" y="954" name="center"/>
  <outline>
    <contour>
      <point x="374.43042894939856" y="1175.0" type="curve" smooth="yes"/>
      <point x="267.43042894939856" y="1175.0"/>
      <point x="182.8958685582959" y="1200.0"/>
      <point x="147.6197456441907" y="1284.0" type="curve" smooth="yes"/>
      <point x="145.91283356597012" y="1289.0"/>
      <point x="143.43006873468187" y="1291.0"/>
      <point x="139.43006873468187" y="1291.0" type="curve" smooth="yes"/>
      <point x="132.43006873468187" y="1291.0"/>
      <point x="128.13698081290244" y="1286.0"/>
      <point x="126.80942255369945" y="1277.0" type="curve" smooth="yes"/>
      <point x="89.31005292945372" y="1074.0"/>
      <point x="183.0" y="980.0"/>
      <point x="324.0" y="980.0" type="curve" smooth="yes"/>
      <point x="469.0" y="980.0"/>
      <point x="609.3100529294537" y="1074.0"/>
      <point x="676.8094225536994" y="1277.0" type="curve" smooth="yes"/>
      <point x="680.1369808129024" y="1286.0"/>
      <point x="677.4300687346819" y="1291.0"/>
      <point x="671.4300687346819" y="1291.0" type="curve" smooth="yes"/>
      <point x="667.4300687346819" y="1291.0"/>
      <point x="663.9128335659701" y="1289.0"/>
      <point x="659.6197456441906" y="1284.0" type="curve" smooth="yes"/>
      <point x="586.964809233143" y="1208.0"/>
      <point x="499.43042894939856" y="1175.0"/>
    </contour>
    <contour>
      <point x="445.9467635813186" y="1467.0" type="line" smooth="yes"/>
      <point x="423.4982889800956" y="1531.0"/>
      <point x="387.77405167948405" y="1563.0"/>
      <point x="336.77405167948405" y="1563.0" type="curve" smooth="yes"/>
      <point x="268.77405167948405" y="1563.0"/>
      <point x="215.58455487733363" y="1512.0"/>
      <point x="202.39505807518327" y="1461.0" type="curve" smooth="yes"/>
      <point x="181.44703374235615" y="1380.0"/>
      <point x="240.3609479524764" y="1341.0"/>
      <point x="301.41274351229094" y="1318.0" type="curve" smooth="yes"/>
      <point x="505.49918951688744" y="1241.0" type="line" smooth="yes"/>
      <point x="509.9819543481756" y="1239.0"/>
      <point x="514.9819543481756" y="1239.0"/>
      <point x="517.7578071012432" y="1242.0" type="curve" smooth="yes"/>
      <point x="522.0508950230227" y="1247.0"/>
      <point x="520.3439829448022" y="1252.0"/>
      <point x="519.1198356978699" y="1255.0" type="curve" smooth="yes"/>
    </contour>
  </outline>
</glyph>
<glyph name="brevegrave" format="2">
  <advance width="722"/>
  <outline>
    <contour>
      <point x="482" y="1263" type="curve" smooth="yes"/>
      <point x="378" y="1263"/>
      <point x="308" y="1304"/>
      <point x="270" y="1397" type="curve" smooth="yes"/>
      <point x="268" y="1401"/>
      <point x="266" y="1403"/>
      <point x="263" y="1403" type="curve" smooth="yes"/>
      <point x="257" y="1403"/>
      <point x="254" y="1398"/>
      <point x="252" y="1390" type="curve" smooth="yes"/>
      <point x="207" y="1143"/>
      <point x="291" y="1060"/>
      <point x="428" y="1060" type="curve" smooth="yes"/>
      <point x="568" y="1060"/>
      <point x="705" y="1165"/>
      <point x="783" y="1390" type="curve" smooth="yes"/>
      <point x="786" y="1398"/>
      <point x="784" y="1403"/>
      <point x="778" y="1403" type="curve" smooth="yes"/>
      <point x="775" y="1403"/>
      <point x="771" y="1401"/>
      <point x="767" y="1397" type="curve" smooth="yes"/>
      <point x="686" y="1313"/>
      <point x="604" y="1263"/>
    </contour>
    <contour>
      <point x="615" y="1645" type="line" smooth="yes"/>
      <point x="602" y="1742"/>
      <point x="577" y="1796"/>
      <point x="506" y="1793" type="curve" smooth="yes"/>
      <point x="444" y="1790"/>
      <point x="390" y="1731"/>
      <point x="379" y="1675" type="curve" smooth="yes"/>
      <point x="365" y="1616"/>
      <point x="391" y="1575"/>
      <point x="428" y="1537" type="curve" smooth="yes"/>
      <point x="613" y="1367" type="line" smooth="yes"/>
      <point x="618" y="1367"/>
      <point x="622" y="1365"/>
      <point x="628" y="1368" type="curve" smooth="yes"/>
      <point x="631" y="1372"/>
      <point x="633" y="1375"/>
      <point x="632" y="1380" type="curve" smooth="yes"/>
    </contour>
  </outline>
</glyph>
<glyph name="brevehook" format="2">
  <advance width="722"/>
  <outline>
    <contour>
      <point x="582" y="1263" type="curve" smooth="yes"/>
      <point x="478" y="1263"/>
      <point x="408" y="1304"/>
      <point x="370" y="1397" type="curve" smooth="yes"/>
      <point x="368" y="1401"/>
      <point x="366" y="1403"/>
      <point x="363" y="1403" type="curve" smooth="yes"/>
      <point x="357" y="1403"/>
      <point x="354" y="1398"/>
      <point x="352" y="1390" type="curve" smooth="yes"/>
      <point x="307" y="1143"/>
      <point x="391" y="1060"/>
      <point x="528" y="1060" type="curve" smooth="yes"/>
      <point x="668" y="1060"/>
      <point x="805" y="1165"/>
      <point x="883" y="1390" type="curve" smooth="yes"/>
      <point x="886" y="1398"/>
      <point x="884" y="1403"/>
      <point x="878" y="1403" type="curve" smooth="yes"/>
      <point x="875" y="1403"/>
      <point x="871" y="1401"/>
      <point x="867" y="1397" type="curve" smooth="yes"/>
      <point x="786" y="1313"/>
      <point x="704" y="1263"/>
    </contour>
    <contour>
      <point x="507" y="1364"/>
      <point x="505" y="1367"/>
      <point x="506" y="1371" type="curve" smooth="yes"/>
      <point x="507" y="1375"/>
      <point x="510" y="1378"/>
      <point x="516" y="1378" type="curve" smooth="yes"/>
      <point x="601" y="1378"/>
      <point x="672" y="1432"/>
      <point x="710" y="1574" type="curve" smooth="yes"/>
      <point x="744" y="1702"/>
      <point x="733" y="1733"/>
      <point x="705" y="1733" type="curve" smooth="yes"/>
      <point x="675" y="1733"/>
      <point x="649" y="1706"/>
      <point x="634" y="1648" type="curve" smooth="yes"/>
      <point x="618" y="1590" type="line" smooth="yes"/>
      <point x="602" y="1530"/>
      <point x="560" y="1498"/>
      <point x="500" y="1498" type="curve" smooth="yes"/>
      <point x="448" y="1498"/>
      <point x="423" y="1533"/>
      <point x="439" y="1595" type="curve" smooth="yes"/>
      <point x="462" y="1678"/>
      <point x="579" y="1746"/>
      <point x="718" y="1746" type="curve" smooth="yes"/>
      <point x="885" y="1746"/>
      <point x="942" y="1673"/>
      <point x="914" y="1566" type="curve" smooth="yes"/>
      <point x="878" y="1432"/>
      <point x="736" y="1364"/>
      <point x="513" y="1364" type="curve" smooth="yes"/>
    </contour>
  </outline>
</glyph>
<glyph name="brevetilde" format="2">
  <advance width="722"/>
  <outline>
    <contour>
      <point x="482" y="1263" type="curve" smooth="yes"/>
      <point x="378" y="1263"/>
      <point x="308" y="1304"/>
      <point x="270" y="1397" type="curve" smooth="yes"/>
      <point x="268" y="1401"/>
      <point x="266" y="1403"/>
      <point x="263" y="1403" type="curve" smooth="yes"/>
      <point x="257" y="1403"/>
      <point x="254" y="1398"/>
      <point x="252" y="1390" type="curve" smooth="yes"/>
      <point x="207" y="1143"/>
      <point x="291" y="1060"/>
      <point x="428" y="1060" type="curve" smooth="yes"/>
      <point x="568" y="1060"/>
      <point x="705" y="1165"/>
      <point x="783" y="1390" type="curve" smooth="yes"/>
      <point x="786" y="1398"/>
      <point x="784" y="1403"/>
      <point x="778" y="1403" type="curve" smooth="yes"/>
      <point x="775" y="1403"/>
      <point x="771" y="1401"/>
      <point x="767" y="1397" type="curve" smooth="yes"/>
      <point x="686" y="1313"/>
      <point x="604" y="1263"/>
    </contour>
    <contour>
      <point x="490" y="1574"/>
      <point x="545" y="1450"/>
      <point x="677" y="1450" type="curve" smooth="yes"/>
      <point x="810" y="1450"/>
      <point x="891" y="1559"/>
      <point x="939" y="1741" type="curve" smooth="yes"/>
      <point x="941" y="1748"/>
      <point x="941" y="1751"/>
      <point x="934" y="1751" type="curve" smooth="yes"/>
      <point x="931" y="1751"/>
      <point x="926" y="1750"/>
      <point x="925" y="1747" type="curve" smooth="yes"/>
      <point x="905" y="1663"/>
      <point x="854" y="1623"/>
      <point x="794" y="1623" type="curve" smooth="yes"/>
      <point x="713" y="1623"/>
      <point x="657" y="1748"/>
      <point x="520" y="1748" type="curve" smooth="yes"/>
      <point x="372" y="1748"/>
      <point x="308" y="1647"/>
      <point x="257" y="1457" type="curve" smooth="yes"/>
      <point x="256" y="1451"/>
      <point x="256" y="1446"/>
      <point x="262" y="1446" type="curve" smooth="yes"/>
      <point x="266" y="1446"/>
      <point x="271" y="1448"/>
      <point x="272" y="1451" type="curve" smooth="yes"/>
      <point x="297" y="1534"/>
      <point x="342" y="1574"/>
      <point x="412" y="1574" type="curve" smooth="yes"/>
    </contour>
  </outline>
</glyph>
<glyph name="circumflexacute" format="2">
  <advance width="804"/>
  <anchor x="464.0" y="980" name="center"/>
  <outline>
    <contour>
      <point x="914" y="1548" type="curve" smooth="yes"/>
      <point x="743" y="1287" type="line" smooth="yes"/>
      <point x="739" y="1284"/>
      <point x="738" y="1280"/>
      <point x="740" y="1276" type="curve" smooth="yes"/>
      <point x="743" y="1274"/>
      <point x="749" y="1275"/>
      <point x="753" y="1276" type="curve" smooth="yes"/>
      <point x="1034" y="1434" type="line" smooth="yes"/>
      <point x="1094" y="1468"/>
      <point x="1142" y="1505"/>
      <point x="1165" y="1566" type="curve" smooth="yes"/>
      <point x="1185" y="1622"/>
      <point x="1169" y="1683"/>
      <point x="1108" y="1689" type="curve" smooth="yes"/>
      <point x="1038" y="1697"/>
      <point x="983" y="1644"/>
    </contour>
    <contour>
      <point x="597" y="1164" type="line"/>
      <point x="150" y="1044" type="line" smooth="yes"/>
      <point x="142" y="1042"/>
      <point x="136" y="1040"/>
      <point x="132" y="1043" type="curve" smooth="yes"/>
      <point x="130" y="1046"/>
      <point x="131" y="1052"/>
      <point x="137" y="1058" type="curve" smooth="yes"/>
      <point x="544" y="1405" type="line" smooth="yes"/>
      <point x="555" y="1414"/>
      <point x="560" y="1418"/>
      <point x="569" y="1418" type="curve" smooth="yes"/>
      <point x="578" y="1418"/>
      <point x="581" y="1414"/>
      <point x="586" y="1405" type="curve" smooth="yes"/>
      <point x="807" y="1058" type="line" smooth="yes"/>
      <point x="811" y="1052"/>
      <point x="809" y="1046"/>
      <point x="804" y="1043" type="curve" smooth="yes"/>
      <point x="801" y="1040"/>
      <point x="795" y="1042"/>
      <point x="789" y="1044" type="curve" smooth="yes"/>
      <point x="405" y="1164" type="line"/>
    </contour>
  </outline>
</glyph>
<glyph name="circumflexgrave" format="2">
  <advance width="804"/>
  <anchor x="466.0" y="981" name="center"/>
  <outline>
    <contour>
      <point x="597" y="1164" type="line"/>
      <point x="150" y="1044" type="line" smooth="yes"/>
      <point x="142" y="1042"/>
      <point x="136" y="1040"/>
      <point x="132" y="1043" type="curve" smooth="yes"/>
      <point x="130" y="1046"/>
      <point x="131" y="1052"/>
      <point x="137" y="1058" type="curve" smooth="yes"/>
      <point x="544" y="1405" type="line" smooth="yes"/>
      <point x="555" y="1414"/>
      <point x="560" y="1418"/>
      <point x="569" y="1418" type="curve" smooth="yes"/>
      <point x="578" y="1418"/>
      <point x="581" y="1414"/>
      <point x="586" y="1405" type="curve" smooth="yes"/>
      <point x="807" y="1058" type="line" smooth="yes"/>
      <point x="811" y="1052"/>
      <point x="809" y="1046"/>
      <point x="804" y="1043" type="curve" smooth="yes"/>
      <point x="801" y="1040"/>
      <point x="795" y="1042"/>
      <point x="789" y="1044" type="curve" smooth="yes"/>
      <point x="405" y="1164" type="line"/>
    </contour>
    <contour>
      <point x="919" y="1485" type="line" smooth="yes"/>
      <point x="930" y="1589"/>
      <point x="919" y="1651"/>
      <point x="852" y="1662" type="curve" smooth="yes"/>
      <point x="793" y="1672"/>
      <point x="731" y="1621"/>
      <point x="708" y="1566" type="curve" smooth="yes"/>
      <point x="682" y="1507"/>
      <point x="696" y="1461"/>
      <point x="724" y="1414" type="curve" smooth="yes"/>
      <point x="857" y="1200" type="line" smooth="yes"/>
      <point x="860" y="1198"/>
      <point x="864" y="1195"/>
      <point x="869" y="1197" type="curve" smooth="yes"/>
      <point x="873" y="1200"/>
      <point x="876" y="1203"/>
      <point x="875" y="1208" type="curve" smooth="yes"/>
    </contour>
  </outline>
</glyph>
<glyph name="circumflexhook" format="2">
  <advance width="804"/>
  <anchor x="465.0" y="980" name="center"/>
  <outline>
    <contour>
      <point x="597" y="1164" type="line"/>
      <point x="150" y="1044" type="line" smooth="yes"/>
      <point x="142" y="1042"/>
      <point x="136" y="1040"/>
      <point x="132" y="1043" type="curve" smooth="yes"/>
      <point x="130" y="1046"/>
      <point x="131" y="1052"/>
      <point x="137" y="1058" type="curve" smooth="yes"/>
      <point x="544" y="1405" type="line" smooth="yes"/>
      <point x="555" y="1414"/>
      <point x="560" y="1418"/>
      <point x="569" y="1418" type="curve" smooth="yes"/>
      <point x="578" y="1418"/>
      <point x="581" y="1414"/>
      <point x="586" y="1405" type="curve" smooth="yes"/>
      <point x="807" y="1058" type="line" smooth="yes"/>
      <point x="811" y="1052"/>
      <point x="809" y="1046"/>
      <point x="804" y="1043" type="curve" smooth="yes"/>
      <point x="801" y="1040"/>
      <point x="795" y="1042"/>
      <point x="789" y="1044" type="curve" smooth="yes"/>
      <point x="405" y="1164" type="line"/>
    </contour>
    <contour>
      <point x="752" y="1269"/>
      <point x="750" y="1272"/>
      <point x="751" y="1276" type="curve" smooth="yes"/>
      <point x="752" y="1280"/>
      <point x="755" y="1283"/>
      <point x="761" y="1283" type="curve" smooth="yes"/>
      <point x="846" y="1283"/>
      <point x="916" y="1337"/>
      <point x="954" y="1479" type="curve" smooth="yes"/>
      <point x="989" y="1607"/>
      <point x="978" y="1638"/>
      <point x="950" y="1638" type="curve" smooth="yes"/>
      <point x="920" y="1638"/>
      <point x="894" y="1611"/>
      <point x="878" y="1553" type="curve" smooth="yes"/>
      <point x="863" y="1495" type="line" smooth="yes"/>
      <point x="847" y="1435"/>
      <point x="805" y="1403"/>
      <point x="745" y="1403" type="curve" smooth="yes"/>
      <point x="693" y="1403"/>
      <point x="667" y="1438"/>
      <point x="684" y="1500" type="curve" smooth="yes"/>
      <point x="706" y="1583"/>
      <point x="823" y="1651"/>
      <point x="962" y="1651" type="curve" smooth="yes"/>
      <point x="1129" y="1651"/>
      <point x="1187" y="1578"/>
      <point x="1158" y="1471" type="curve" smooth="yes"/>
      <point x="1122" y="1337"/>
      <point x="981" y="1269"/>
      <point x="758" y="1269" type="curve" smooth="yes"/>
    </contour>
  </outline>
</glyph>
<glyph name="circumflextilde" format="2">
  <advance width="806"/>
  <outline>
    <contour>
      <point x="697" y="1164" type="line"/>
      <point x="250" y="1044" type="line" smooth="yes"/>
      <point x="242" y="1042"/>
      <point x="236" y="1040"/>
      <point x="232" y="1043" type="curve" smooth="yes"/>
      <point x="230" y="1046"/>
      <point x="231" y="1052"/>
      <point x="237" y="1058" type="curve" smooth="yes"/>
      <point x="644" y="1405" type="line" smooth="yes"/>
      <point x="655" y="1414"/>
      <point x="660" y="1418"/>
      <point x="669" y="1418" type="curve" smooth="yes"/>
      <point x="678" y="1418"/>
      <point x="681" y="1414"/>
      <point x="686" y="1405" type="curve" smooth="yes"/>
      <point x="907" y="1058" type="line" smooth="yes"/>
      <point x="911" y="1052"/>
      <point x="909" y="1046"/>
      <point x="904" y="1043" type="curve" smooth="yes"/>
      <point x="901" y="1040"/>
      <point x="895" y="1042"/>
      <point x="889" y="1044" type="curve" smooth="yes"/>
      <point x="505" y="1164" type="line"/>
    </contour>
    <contour>
      <point x="629" y="1544"/>
      <point x="683" y="1420"/>
      <point x="815" y="1420" type="curve" smooth="yes"/>
      <point x="948" y="1420"/>
      <point x="1030" y="1529"/>
      <point x="1078" y="1711" type="curve" smooth="yes"/>
      <point x="1080" y="1718"/>
      <point x="1080" y="1721"/>
      <point x="1073" y="1721" type="curve" smooth="yes"/>
      <point x="1070" y="1721"/>
      <point x="1065" y="1720"/>
      <point x="1064" y="1717" type="curve" smooth="yes"/>
      <point x="1044" y="1633"/>
      <point x="993" y="1593"/>
      <point x="933" y="1593" type="curve" smooth="yes"/>
      <point x="852" y="1593"/>
      <point x="796" y="1718"/>
      <point x="659" y="1718" type="curve" smooth="yes"/>
      <point x="511" y="1718"/>
      <point x="447" y="1617"/>
      <point x="396" y="1427" type="curve" smooth="yes"/>
      <point x="395" y="1421"/>
      <point x="395" y="1416"/>
      <point x="401" y="1416" type="curve" smooth="yes"/>
      <point x="405" y="1416"/>
      <point x="410" y="1418"/>
      <point x="411" y="1421" type="curve" smooth="yes"/>
      <point x="436" y="1504"/>
      <point x="481" y="1544"/>
      <point x="551" y="1544" type="curve" smooth="yes"/>
    </contour>
  </outline>
</glyph>
<glyph name="dotbelowcmb" format="2">
  <advance width="469"/>
  <outline>
    <contour>
      <point x="116" y="-443" type="curve" smooth="yes"/>
      <point x="226" y="-443"/>
      <point x="321" y="-367"/>
      <point x="351" y="-254" type="curve" smooth="yes"/>
      <point x="381" y="-143"/>
      <point x="326" y="-68"/>
      <point x="217" y="-68" type="curve" smooth="yes"/>
      <point x="107" y="-68"/>
      <point x="11" y="-144"/>
      <point x="-18" y="-254" type="curve" smooth="yes"/>
      <point x="-48" y="-366"/>
      <point x="6" y="-443"/>
    </contour>
  </outline>
</glyph>
<glyph name="hookcmb" format="2">
  <advance width="635"/>
  <outline>
    <contour>
      <point x="275" y="1047"/>
      <point x="272" y="1050"/>
      <point x="274" y="1055" type="curve" smooth="yes"/>
      <point x="275" y="1059"/>
      <point x="278" y="1063"/>
      <point x="285" y="1063" type="curve" smooth="yes"/>
      <point x="379" y="1063"/>
      <point x="458" y="1123"/>
      <point x="500" y="1280" type="curve" smooth="yes"/>
      <point x="538" y="1423"/>
      <point x="525" y="1457"/>
      <point x="494" y="1457" type="curve" smooth="yes"/>
      <point x="461" y="1457"/>
      <point x="432" y="1427"/>
      <point x="415" y="1363" type="curve" smooth="yes"/>
      <point x="398" y="1298" type="line" smooth="yes"/>
      <point x="380" y="1231"/>
      <point x="333" y="1196"/>
      <point x="267" y="1196" type="curve" smooth="yes"/>
      <point x="209" y="1196"/>
      <point x="181" y="1235"/>
      <point x="199" y="1304" type="curve" smooth="yes"/>
      <point x="224" y="1396"/>
      <point x="354" y="1471"/>
      <point x="508" y="1471" type="curve" smooth="yes"/>
      <point x="694" y="1471"/>
      <point x="757" y="1390"/>
      <point x="726" y="1271" type="curve" smooth="yes"/>
      <point x="686" y="1123"/>
      <point x="530" y="1047"/>
      <point x="282" y="1047" type="curve" smooth="yes"/>
    </contour>
  </outline>
</glyph>
<glyph name="invertedbreve.cap" format="2">
  <advance width="650"/>
  <anchor x="360" y="996" name="center"/>
  <outline>
    <contour>
      <point x="362" y="1127.0" type="curve" smooth="yes"/>
      <point x="469" y="1127.0"/>
      <point x="540" y="1086.0"/>
      <point x="581" y="988.0" type="curve" smooth="yes"/>
      <point x="583" y="983.0"/>
      <point x="585.0" y="981.0"/>
      <point x="589.0" y="981.0" type="curve" smooth="yes"/>
      <point x="596.0" y="981.0"/>
      <point x="600" y="986.0"/>
      <point x="602" y="995.0" type="curve" smooth="yes"/>
      <point x="642" y="1218.0"/>
      <point x="553" y="1322.0"/>
      <point x="412" y="1322.0" type="curve" smooth="yes"/>
      <point x="267" y="1322.0"/>
      <point x="126" y="1218.0"/>
      <point x="52" y="995.0" type="curve" smooth="yes"/>
      <point x="48" y="986.0"/>
      <point x="51.0" y="981.0"/>
      <point x="57.0" y="981.0" type="curve" smooth="yes"/>
      <point x="61.0" y="981.0"/>
      <point x="65" y="983.0"/>
      <point x="69" y="988.0" type="curve" smooth="yes"/>
      <point x="154" y="1076.0"/>
      <point x="237" y="1127.0"/>
    </contour>
  </outline>
</glyph>
<glyph name="ringacute" format="2">
  <advance width="625"/>
  <outline>
    <contour>
      <point x="467" y="1044" type="curve" smooth="yes"/>
      <point x="581" y="1044"/>
      <point x="680" y="1119"/>
      <point x="709" y="1227" type="curve" smooth="yes"/>
      <point x="737" y="1334"/>
      <point x="678" y="1408"/>
      <point x="564" y="1408" type="curve" smooth="yes"/>
      <point x="452" y="1408"/>
      <point x="353" y="1333"/>
      <point x="325" y="1227" type="curve" smooth="yes"/>
      <point x="296" y="1118"/>
      <point x="355" y="1044"/>
    </contour>
    <contour>
      <point x="561" y="1390" type="curve" smooth="yes"/>
      <point x="659" y="1390"/>
      <point x="709" y="1322"/>
      <point x="684" y="1227" type="curve" smooth="yes"/>
      <point x="658" y="1130"/>
      <point x="571" y="1062"/>
      <point x="474" y="1062" type="curve" smooth="yes"/>
      <point x="375" y="1062"/>
      <point x="324" y="1130"/>
      <point x="350" y="1227" type="curve" smooth="yes"/>
      <point x="375" y="1323"/>
      <point x="462" y="1390"/>
    </contour>
    <contour>
      <point x="683" y="1696" type="curve" smooth="yes"/>
      <point x="473" y="1457" type="line" smooth="yes"/>
      <point x="470" y="1454"/>
      <point x="468" y="1450"/>
      <point x="468" y="1446" type="curve" smooth="yes"/>
      <point x="472" y="1443"/>
      <point x="477" y="1443"/>
      <point x="481" y="1444" type="curve" smooth="yes"/>
      <point x="774" y="1558" type="line" smooth="yes"/>
      <point x="837" y="1583"/>
      <point x="889" y="1612"/>
      <point x="921" y="1671" type="curve" smooth="yes"/>
      <point x="951" y="1727"/>
      <point x="948" y="1791"/>
      <point x="889" y="1808" type="curve" smooth="yes"/>
      <point x="825" y="1828"/>
      <point x="765" y="1783"/>
    </contour>
  </outline>
</glyph>
<glyph name="ringcmb" format="2">
  <advance width="575"/>
  <outline>
    <contour>
      <point x="467" y="1044" type="curve" smooth="yes"/>
      <point x="593" y="1044"/>
      <point x="704" y="1132"/>
      <point x="738" y="1258" type="curve" smooth="yes"/>
      <point x="772" y="1384"/>
      <point x="707" y="1471"/>
      <point x="581" y="1471" type="curve" smooth="yes"/>
      <point x="456" y="1471"/>
      <point x="346" y="1383"/>
      <point x="312" y="1258" type="curve" smooth="yes"/>
      <point x="278" y="1131"/>
      <point x="342" y="1044"/>
    </contour>
    <contour>
      <point x="578" y="1451" type="curve" smooth="yes"/>
      <point x="687" y="1451"/>
      <point x="741" y="1371"/>
      <point x="711" y="1258" type="curve" smooth="yes"/>
      <point x="681" y="1144"/>
      <point x="582" y="1064"/>
      <point x="474" y="1064" type="curve" smooth="yes"/>
      <point x="364" y="1064"/>
      <point x="309" y="1144"/>
      <point x="339" y="1258" type="curve" smooth="yes"/>
      <point x="370" y="1372"/>
      <point x="468" y="1451"/>
    </contour>
  </outline>
</glyph>
